<?xml version="1.0" encoding="UTF-8"?>
<svg id="Capa_1" data-name="Capa 1" xmlns="http://www.w3.org/2000/svg" viewBox="0 0 48.99 64.5">
  <defs>
    <style>
      .cls-1 {
        fill: #c88826;
      }

      .cls-2 {
        fill: #e3c249;
      }

      .cls-3 {
        fill: #75aadb;
      }

      .cls-4 {
        fill: #d8a223;
      }

      .cls-5 {
        fill: #894528;
      }

      .cls-6 {
        fill: #9f5323;
      }

      .cls-7 {
        fill: #fff;
      }

      .cls-8 {
        fill: #d9a221;
      }

      .cls-9 {
        fill: #b66c23;
      }

      .cls-10 {
        fill: #cc892a;
      }

      .cls-11 {
        fill: #da9923;
      }

      .cls-12 {
        fill: #195942;
      }
    </style>
  </defs>
  <rect class="cls-5" x="46.8" y="27.4" width="1.94" height="1.94"/>
  <rect class="cls-5" x="46.8" y="25.46" width="1.94" height="1.94"/>
  <rect class="cls-5" x="46.8" y="23.52" width="1.94" height="1.94"/>
  <rect class="cls-5" x="46.8" y="21.58" width="1.94" height="1.94"/>
  <rect class="cls-5" x="46.8" y="19.64" width="1.94" height="1.94"/>
  <rect class="cls-5" x="46.8" y="17.7" width="1.94" height="1.94"/>
  <rect class="cls-5" x="44.86" y="31.28" width="1.94" height="1.94"/>
  <rect class="cls-5" x="44.86" y="29.34" width="1.94" height="1.94"/>
  <rect class="cls-8" x="44.86" y="27.4" width="1.94" height="1.94"/>
  <rect class="cls-2" x="44.86" y="25.46" width="1.94" height="1.94"/>
  <rect class="cls-2" x="44.86" y="23.52" width="1.94" height="1.94"/>
  <rect class="cls-2" x="44.86" y="21.58" width="1.94" height="1.94"/>
  <rect class="cls-2" x="44.86" y="19.64" width="1.94" height="1.94"/>
  <rect class="cls-8" x="44.86" y="17.7" width="1.94" height="1.94"/>
  <rect class="cls-5" x="44.86" y="15.76" width="1.94" height="1.94"/>
  <rect class="cls-5" x="44.86" y="13.82" width="1.94" height="1.94"/>
  <rect class="cls-5" x="42.92" y="35.16" width="1.94" height="1.94"/>
  <rect class="cls-5" x="42.92" y="33.22" width="1.94" height="1.94"/>
  <rect class="cls-8" x="42.92" y="31.28" width="1.94" height="1.94"/>
  <rect class="cls-2" x="42.92" y="29.34" width="1.94" height="1.94"/>
  <rect class="cls-2" x="42.92" y="27.4" width="1.94" height="1.94"/>
  <rect class="cls-2" x="42.92" y="25.46" width="1.94" height="1.94"/>
  <rect class="cls-2" x="42.92" y="23.52" width="1.94" height="1.94"/>
  <rect class="cls-2" x="42.92" y="21.58" width="1.94" height="1.94"/>
  <rect class="cls-2" x="42.92" y="19.64" width="1.94" height="1.94"/>
  <rect class="cls-2" x="42.92" y="17.7" width="1.94" height="1.94"/>
  <rect class="cls-2" x="42.92" y="15.76" width="1.94" height="1.94"/>
  <rect class="cls-8" x="42.92" y="13.82" width="1.94" height="1.94"/>
  <rect class="cls-5" x="42.92" y="11.88" width="1.94" height="1.94"/>
  <rect class="cls-5" x="42.92" y="9.95" width="1.94" height="1.93"/>
  <rect class="cls-5" x="40.98" y="37.1" width="1.94" height="1.94"/>
  <rect class="cls-8" x="40.98" y="35.16" width="1.94" height="1.94"/>
  <rect class="cls-2" x="40.98" y="33.22" width="1.94" height="1.94"/>
  <rect class="cls-2" x="40.98" y="31.28" width="1.94" height="1.94"/>
  <rect class="cls-2" x="40.98" y="29.34" width="1.94" height="1.94"/>
  <rect class="cls-2" x="40.98" y="27.4" width="1.94" height="1.94"/>
  <rect class="cls-5" x="40.98" y="25.46" width="1.94" height="1.94"/>
  <rect class="cls-5" x="40.98" y="23.52" width="1.94" height="1.94"/>
  <rect class="cls-5" x="40.98" y="21.58" width="1.94" height="1.94"/>
  <rect class="cls-5" x="40.98" y="19.64" width="1.94" height="1.94"/>
  <rect class="cls-2" x="40.98" y="17.7" width="1.94" height="1.94"/>
  <rect class="cls-2" x="40.98" y="15.76" width="1.94" height="1.94"/>
  <rect class="cls-2" x="40.98" y="13.82" width="1.94" height="1.94"/>
  <rect class="cls-2" x="40.98" y="11.88" width="1.94" height="1.94"/>
  <rect class="cls-8" x="40.98" y="9.95" width="1.94" height="1.93"/>
  <rect class="cls-5" x="40.98" y="8.01" width="1.94" height="1.94"/>
  <rect class="cls-5" x="39.04" y="39.04" width="1.94" height="1.94"/>
  <rect class="cls-8" x="39.04" y="37.1" width="1.94" height="1.94"/>
  <rect class="cls-2" x="39.04" y="35.16" width="1.94" height="1.94"/>
  <rect class="cls-2" x="39.04" y="33.22" width="1.94" height="1.94"/>
  <rect class="cls-2" x="39.04" y="31.28" width="1.94" height="1.94"/>
  <rect class="cls-5" x="39.04" y="29.34" width="1.94" height="1.94"/>
  <rect class="cls-5" x="39.04" y="27.4" width="1.94" height="1.94"/>
  <rect class="cls-10" x="39.04" y="25.46" width="1.94" height="1.94"/>
  <rect class="cls-11" x="39.04" y="23.52" width="1.94" height="1.94"/>
  <rect class="cls-11" x="39.04" y="21.58" width="1.94" height="1.94"/>
  <rect class="cls-11" x="39.04" y="19.64" width="1.94" height="1.94"/>
  <rect class="cls-5" x="39.04" y="17.7" width="1.94" height="1.94"/>
  <rect class="cls-5" x="39.04" y="15.76" width="1.94" height="1.94"/>
  <rect class="cls-2" x="39.04" y="13.82" width="1.94" height="1.94"/>
  <rect class="cls-2" x="39.04" y="11.88" width="1.94" height="1.94"/>
  <rect class="cls-2" x="39.04" y="9.95" width="1.94" height="1.93"/>
  <rect class="cls-8" x="39.04" y="8.01" width="1.94" height="1.94"/>
  <rect class="cls-5" x="39.04" y="6.07" width="1.94" height="1.94"/>
  <rect class="cls-5" x="37.1" y="40.98" width="1.94" height="1.94"/>
  <rect class="cls-8" x="37.1" y="39.04" width="1.94" height="1.94"/>
  <rect class="cls-2" x="37.1" y="37.1" width="1.94" height="1.94"/>
  <rect class="cls-2" x="37.1" y="35.16" width="1.94" height="1.94"/>
  <rect class="cls-2" x="37.1" y="33.22" width="1.94" height="1.94"/>
  <rect class="cls-5" x="37.1" y="31.28" width="1.94" height="1.94"/>
  <rect class="cls-10" x="37.1" y="29.34" width="1.94" height="1.94"/>
  <rect class="cls-11" x="37.1" y="27.4" width="1.94" height="1.94"/>
  <rect class="cls-11" x="37.1" y="25.46" width="1.94" height="1.94"/>
  <rect class="cls-11" x="37.1" y="23.52" width="1.94" height="1.94"/>
  <rect class="cls-11" x="37.1" y="21.58" width="1.94" height="1.94"/>
  <rect class="cls-11" x="37.1" y="19.64" width="1.94" height="1.94"/>
  <rect class="cls-11" x="37.1" y="17.7" width="1.94" height="1.94"/>
  <rect class="cls-10" x="37.1" y="15.76" width="1.94" height="1.94"/>
  <rect class="cls-5" x="37.1" y="13.82" width="1.94" height="1.94"/>
  <rect class="cls-2" x="37.1" y="11.88" width="1.94" height="1.94"/>
  <rect class="cls-2" x="37.1" y="9.95" width="1.94" height="1.93"/>
  <rect class="cls-2" x="37.1" y="8.01" width="1.94" height="1.94"/>
  <rect class="cls-8" x="37.1" y="6.07" width="1.94" height="1.94"/>
  <rect class="cls-5" x="37.1" y="4.13" width="1.94" height="1.94"/>
  <rect class="cls-5" x="35.16" y="40.98" width="1.94" height="1.94"/>
  <rect class="cls-2" x="35.16" y="39.04" width="1.94" height="1.94"/>
  <rect class="cls-2" x="35.16" y="37.1" width="1.94" height="1.94"/>
  <rect class="cls-2" x="35.16" y="35.16" width="1.94" height="1.94"/>
  <rect class="cls-5" x="35.16" y="33.22" width="1.94" height="1.94"/>
  <rect class="cls-10" x="35.16" y="31.28" width="1.94" height="1.94"/>
  <rect class="cls-11" x="35.16" y="29.34" width="1.94" height="1.94"/>
  <rect class="cls-11" x="35.16" y="27.4" width="1.94" height="1.94"/>
  <rect class="cls-11" x="35.16" y="25.46" width="1.94" height="1.94"/>
  <rect class="cls-11" x="35.16" y="23.52" width="1.94" height="1.94"/>
  <rect class="cls-11" x="35.16" y="21.58" width="1.94" height="1.94"/>
  <rect class="cls-11" x="35.16" y="19.64" width="1.94" height="1.94"/>
  <rect class="cls-11" x="35.16" y="17.7" width="1.94" height="1.94"/>
  <rect class="cls-11" x="35.16" y="15.76" width="1.94" height="1.94"/>
  <rect class="cls-10" x="35.16" y="13.82" width="1.94" height="1.94"/>
  <rect class="cls-5" x="35.16" y="11.88" width="1.94" height="1.94"/>
  <rect class="cls-2" x="35.16" y="9.95" width="1.94" height="1.93"/>
  <rect class="cls-2" x="35.16" y="8.01" width="1.94" height="1.94"/>
  <rect class="cls-2" x="35.16" y="6.07" width="1.94" height="1.94"/>
  <rect class="cls-5" x="35.16" y="4.13" width="1.94" height="1.94"/>
  <rect class="cls-3" x="33.22" y="62.31" width="1.94" height="1.94"/>
  <rect class="cls-3" x="33.22" y="60.37" width="1.94" height="1.94"/>
  <rect class="cls-3" x="33.22" y="58.44" width="1.94" height="1.94"/>
  <rect class="cls-3" x="33.22" y="56.5" width="1.94" height="1.94"/>
  <rect class="cls-3" x="33.22" y="54.56" width="1.94" height="1.94"/>
  <rect class="cls-3" x="33.22" y="52.62" width="1.94" height="1.94"/>
  <rect class="cls-3" x="33.22" y="50.68" width="1.94" height="1.94"/>
  <rect class="cls-3" x="33.22" y="48.74" width="1.94" height="1.94"/>
  <rect class="cls-3" x="33.22" y="46.8" width="1.94" height="1.94"/>
  <rect class="cls-3" x="33.22" y="44.86" width="1.94" height="1.94"/>
  <rect class="cls-5" x="33.22" y="42.92" width="1.94" height="1.94"/>
  <rect class="cls-8" x="33.22" y="40.98" width="1.94" height="1.94"/>
  <rect class="cls-2" x="33.22" y="39.04" width="1.94" height="1.94"/>
  <rect class="cls-2" x="33.22" y="37.1" width="1.94" height="1.94"/>
  <rect class="cls-5" x="33.22" y="35.16" width="1.94" height="1.94"/>
  <rect class="cls-10" x="33.22" y="33.22" width="1.94" height="1.94"/>
  <rect class="cls-11" x="33.22" y="31.28" width="1.94" height="1.94"/>
  <rect class="cls-11" x="33.22" y="29.34" width="1.94" height="1.94"/>
  <rect class="cls-11" x="33.22" y="27.4" width="1.94" height="1.94"/>
  <rect class="cls-11" x="33.22" y="25.46" width="1.94" height="1.94"/>
  <rect class="cls-11" x="33.22" y="23.52" width="1.94" height="1.94"/>
  <rect class="cls-11" x="33.22" y="21.58" width="1.94" height="1.94"/>
  <rect class="cls-11" x="33.22" y="19.64" width="1.94" height="1.94"/>
  <rect class="cls-11" x="33.22" y="17.7" width="1.94" height="1.94"/>
  <rect class="cls-11" x="33.22" y="15.76" width="1.94" height="1.94"/>
  <rect class="cls-11" x="33.22" y="13.82" width="1.94" height="1.94"/>
  <rect class="cls-10" x="33.22" y="11.88" width="1.94" height="1.94"/>
  <rect class="cls-5" x="33.22" y="9.95" width="1.94" height="1.93"/>
  <rect class="cls-2" x="33.22" y="8.01" width="1.94" height="1.94"/>
  <rect class="cls-2" x="33.22" y="6.07" width="1.94" height="1.94"/>
  <rect class="cls-8" x="33.22" y="4.13" width="1.94" height="1.94"/>
  <rect class="cls-5" x="33.22" y="2.19" width="1.94" height="1.94"/>
  <rect class="cls-3" x="31.28" y="62.31" width="1.94" height="1.94"/>
  <rect class="cls-3" x="31.28" y="60.37" width="1.94" height="1.94"/>
  <rect class="cls-3" x="31.28" y="58.44" width="1.94" height="1.94"/>
  <rect class="cls-3" x="31.28" y="56.5" width="1.94" height="1.94"/>
  <rect class="cls-3" x="31.28" y="54.56" width="1.94" height="1.94"/>
  <rect class="cls-3" x="31.28" y="52.62" width="1.94" height="1.94"/>
  <rect class="cls-3" x="31.28" y="50.68" width="1.94" height="1.94"/>
  <rect class="cls-3" x="31.28" y="48.74" width="1.94" height="1.94"/>
  <rect class="cls-3" x="31.28" y="46.8" width="1.94" height="1.94"/>
  <rect class="cls-3" x="31.28" y="44.86" width="1.94" height="1.94"/>
  <rect class="cls-5" x="31.28" y="42.92" width="1.94" height="1.94"/>
  <rect class="cls-2" x="31.28" y="40.98" width="1.94" height="1.94"/>
  <rect class="cls-2" x="31.28" y="39.04" width="1.94" height="1.94"/>
  <rect class="cls-5" x="31.28" y="37.1" width="1.94" height="1.94"/>
  <rect class="cls-10" x="31.28" y="35.16" width="1.94" height="1.94"/>
  <rect class="cls-11" x="31.28" y="33.22" width="1.94" height="1.94"/>
  <rect class="cls-11" x="31.28" y="31.28" width="1.94" height="1.94"/>
  <rect class="cls-12" x="31.28" y="29.34" width="1.94" height="1.94"/>
  <rect class="cls-12" x="31.28" y="27.4" width="1.94" height="1.94"/>
  <rect class="cls-11" x="31.28" y="25.46" width="1.94" height="1.94"/>
  <rect class="cls-11" x="31.28" y="23.52" width="1.94" height="1.94"/>
  <rect class="cls-11" x="31.28" y="21.58" width="1.94" height="1.94"/>
  <rect class="cls-11" x="31.28" y="19.64" width="1.94" height="1.94"/>
  <rect class="cls-11" x="31.28" y="17.7" width="1.94" height="1.94"/>
  <rect class="cls-11" x="31.28" y="15.76" width="1.94" height="1.94"/>
  <rect class="cls-11" x="31.28" y="13.82" width="1.94" height="1.94"/>
  <rect class="cls-11" x="31.28" y="11.88" width="1.94" height="1.94"/>
  <rect class="cls-10" x="31.28" y="9.95" width="1.94" height="1.93"/>
  <rect class="cls-5" x="31.28" y="8.01" width="1.94" height="1.94"/>
  <rect class="cls-2" x="31.28" y="6.07" width="1.94" height="1.94"/>
  <rect class="cls-2" x="31.28" y="4.13" width="1.94" height="1.94"/>
  <rect class="cls-5" x="31.28" y="2.19" width="1.94" height="1.94"/>
  <rect class="cls-3" x="29.34" y="60.37" width="1.94" height="1.94"/>
  <rect class="cls-3" x="29.34" y="58.44" width="1.94" height="1.94"/>
  <rect class="cls-3" x="29.34" y="56.5" width="1.94" height="1.94"/>
  <rect class="cls-3" x="29.34" y="54.56" width="1.94" height="1.94"/>
  <rect class="cls-3" x="29.34" y="52.62" width="1.94" height="1.94"/>
  <rect class="cls-3" x="29.34" y="50.68" width="1.94" height="1.94"/>
  <rect class="cls-3" x="29.34" y="48.74" width="1.94" height="1.94"/>
  <rect class="cls-3" x="29.34" y="46.8" width="1.94" height="1.94"/>
  <rect class="cls-5" x="29.34" y="44.86" width="1.94" height="1.94"/>
  <rect class="cls-4" x="29.34" y="42.92" width="1.94" height="1.94"/>
  <rect class="cls-2" x="29.34" y="40.98" width="1.94" height="1.94"/>
  <rect class="cls-2" x="29.34" y="39.04" width="1.94" height="1.94"/>
  <rect class="cls-5" x="29.34" y="37.1" width="1.94" height="1.94"/>
  <rect class="cls-11" x="29.34" y="35.16" width="1.94" height="1.94"/>
  <rect class="cls-11" x="29.34" y="33.22" width="1.94" height="1.94"/>
  <rect class="cls-11" x="29.34" y="31.28" width="1.94" height="1.94"/>
  <rect class="cls-12" x="29.34" y="29.34" width="1.94" height="1.94"/>
  <rect class="cls-12" x="29.34" y="27.4" width="1.94" height="1.94"/>
  <rect class="cls-12" x="29.34" y="25.46" width="1.94" height="1.94"/>
  <rect class="cls-11" x="29.34" y="23.52" width="1.94" height="1.94"/>
  <rect class="cls-11" x="29.34" y="21.58" width="1.94" height="1.94"/>
  <rect class="cls-11" x="29.34" y="19.64" width="1.94" height="1.94"/>
  <rect class="cls-11" x="29.34" y="17.7" width="1.94" height="1.94"/>
  <rect class="cls-11" x="29.34" y="15.76" width="1.94" height="1.94"/>
  <rect class="cls-11" x="29.34" y="13.82" width="1.94" height="1.94"/>
  <rect class="cls-11" x="29.34" y="11.88" width="1.94" height="1.94"/>
  <rect class="cls-11" x="29.34" y="9.95" width="1.94" height="1.93"/>
  <rect class="cls-5" x="29.34" y="8.01" width="1.94" height="1.94"/>
  <rect class="cls-2" x="29.34" y="6.07" width="1.94" height="1.94"/>
  <rect class="cls-2" x="29.34" y="4.13" width="1.94" height="1.94"/>
  <rect class="cls-8" x="29.34" y="2.19" width="1.94" height="1.94"/>
  <rect class="cls-5" x="29.34" y=".25" width="1.94" height="1.94"/>
  <rect class="cls-3" x="27.4" y="58.44" width="1.94" height="1.94"/>
  <rect class="cls-3" x="27.4" y="56.5" width="1.94" height="1.94"/>
  <rect class="cls-3" x="27.4" y="54.56" width="1.94" height="1.94"/>
  <rect class="cls-3" x="27.4" y="52.62" width="1.94" height="1.94"/>
  <rect class="cls-3" x="27.4" y="50.68" width="1.94" height="1.94"/>
  <rect class="cls-3" x="27.4" y="48.74" width="1.94" height="1.94"/>
  <rect class="cls-3" x="27.4" y="46.8" width="1.94" height="1.94"/>
  <rect class="cls-5" x="27.4" y="44.86" width="1.94" height="1.94"/>
  <rect class="cls-4" x="27.4" y="42.92" width="1.94" height="1.94"/>
  <rect class="cls-2" x="27.4" y="40.98" width="1.94" height="1.94"/>
  <rect class="cls-5" x="27.4" y="39.04" width="1.94" height="1.94"/>
  <rect class="cls-10" x="27.4" y="37.1" width="1.94" height="1.94"/>
  <rect class="cls-11" x="27.4" y="35.16" width="1.94" height="1.94"/>
  <rect class="cls-11" x="27.4" y="33.22" width="1.94" height="1.94"/>
  <rect class="cls-11" x="27.4" y="31.28" width="1.94" height="1.94"/>
  <rect class="cls-12" x="27.4" y="29.34" width="1.94" height="1.94"/>
  <rect class="cls-12" x="27.4" y="27.4" width="1.94" height="1.94"/>
  <rect class="cls-12" x="27.4" y="25.46" width="1.94" height="1.94"/>
  <rect class="cls-12" x="27.4" y="23.52" width="1.94" height="1.94"/>
  <rect class="cls-11" x="27.4" y="21.58" width="1.94" height="1.94"/>
  <rect class="cls-11" x="27.4" y="19.64" width="1.94" height="1.94"/>
  <rect class="cls-12" x="27.4" y="17.7" width="1.94" height="1.94"/>
  <rect class="cls-12" x="27.4" y="15.76" width="1.94" height="1.94"/>
  <rect class="cls-11" x="27.4" y="13.82" width="1.94" height="1.94"/>
  <rect class="cls-11" x="27.4" y="11.88" width="1.94" height="1.94"/>
  <rect class="cls-11" x="27.4" y="9.95" width="1.94" height="1.93"/>
  <rect class="cls-10" x="27.4" y="8.01" width="1.94" height="1.94"/>
  <rect class="cls-5" x="27.4" y="6.07" width="1.94" height="1.94"/>
  <rect class="cls-2" x="27.4" y="4.13" width="1.94" height="1.94"/>
  <rect class="cls-2" x="27.4" y="2.19" width="1.94" height="1.94"/>
  <rect class="cls-5" x="27.4" y=".25" width="1.94" height="1.94"/>
  <rect class="cls-7" x="25.46" y="56.5" width="1.94" height="1.94"/>
  <rect class="cls-7" x="25.46" y="54.56" width="1.94" height="1.94"/>
  <rect class="cls-7" x="25.46" y="52.62" width="1.94" height="1.94"/>
  <rect class="cls-7" x="25.46" y="50.68" width="1.94" height="1.94"/>
  <rect class="cls-7" x="25.46" y="48.74" width="1.94" height="1.94"/>
  <rect class="cls-7" x="25.46" y="46.8" width="1.94" height="1.94"/>
  <rect class="cls-5" x="25.46" y="44.86" width="1.94" height="1.94"/>
  <rect class="cls-4" x="25.46" y="42.92" width="1.94" height="1.94"/>
  <rect class="cls-2" x="25.46" y="40.98" width="1.94" height="1.94"/>
  <rect class="cls-5" x="25.46" y="39.04" width="1.94" height="1.94"/>
  <rect class="cls-10" x="25.46" y="37.1" width="1.94" height="1.94"/>
  <rect class="cls-11" x="25.46" y="35.16" width="1.94" height="1.94"/>
  <rect class="cls-11" x="25.46" y="33.22" width="1.94" height="1.94"/>
  <rect class="cls-11" x="25.46" y="31.28" width="1.94" height="1.94"/>
  <rect class="cls-12" x="25.46" y="29.34" width="1.94" height="1.94"/>
  <rect class="cls-12" x="25.46" y="27.4" width="1.94" height="1.94"/>
  <rect class="cls-12" x="25.46" y="25.46" width="1.94" height="1.94"/>
  <rect class="cls-12" x="25.46" y="23.52" width="1.94" height="1.94"/>
  <rect class="cls-11" x="25.46" y="21.58" width="1.94" height="1.94"/>
  <rect class="cls-12" x="25.46" y="19.64" width="1.94" height="1.94"/>
  <rect class="cls-12" x="25.46" y="17.7" width="1.94" height="1.94"/>
  <rect class="cls-12" x="25.46" y="15.76" width="1.94" height="1.94"/>
  <rect class="cls-12" x="25.46" y="13.82" width="1.94" height="1.94"/>
  <rect class="cls-11" x="25.46" y="11.88" width="1.94" height="1.94"/>
  <rect class="cls-11" x="25.46" y="9.95" width="1.94" height="1.93"/>
  <rect class="cls-10" x="25.46" y="8.01" width="1.94" height="1.94"/>
  <rect class="cls-5" x="25.46" y="6.07" width="1.94" height="1.94"/>
  <rect class="cls-2" x="25.46" y="4.13" width="1.94" height="1.94"/>
  <rect class="cls-2" x="25.46" y="2.19" width="1.94" height="1.94"/>
  <rect class="cls-5" x="25.46" y=".25" width="1.94" height="1.94"/>
  <rect class="cls-7" x="23.52" y="56.5" width="1.94" height="1.94"/>
  <rect class="cls-7" x="23.52" y="54.56" width="1.94" height="1.94"/>
  <rect class="cls-7" x="23.52" y="52.62" width="1.94" height="1.94"/>
  <rect class="cls-7" x="23.52" y="50.68" width="1.94" height="1.94"/>
  <rect class="cls-7" x="23.52" y="48.74" width="1.94" height="1.94"/>
  <rect class="cls-7" x="23.52" y="46.8" width="1.94" height="1.94"/>
  <rect class="cls-5" x="23.52" y="44.86" width="1.94" height="1.94"/>
  <rect class="cls-4" x="23.52" y="42.92" width="1.94" height="1.94"/>
  <rect class="cls-2" x="23.52" y="40.98" width="1.94" height="1.94"/>
  <rect class="cls-5" x="23.52" y="39.04" width="1.94" height="1.94"/>
  <rect class="cls-10" x="23.52" y="37.1" width="1.94" height="1.94"/>
  <rect class="cls-10" x="23.52" y="35.16" width="1.94" height="1.94"/>
  <rect class="cls-10" x="23.52" y="33.22" width="1.94" height="1.94"/>
  <rect class="cls-10" x="23.52" y="31.28" width="1.94" height="1.94"/>
  <rect class="cls-12" x="23.52" y="29.34" width="1.94" height="1.94"/>
  <rect class="cls-12" x="23.52" y="27.4" width="1.94" height="1.94"/>
  <rect class="cls-12" x="23.52" y="25.46" width="1.94" height="1.94"/>
  <rect class="cls-12" x="23.52" y="23.52" width="1.94" height="1.94"/>
  <rect class="cls-6" x="23.52" y="21.58" width="1.94" height="1.94"/>
  <rect class="cls-12" x="23.52" y="19.64" width="1.94" height="1.94"/>
  <rect class="cls-12" x="23.52" y="17.7" width="1.94" height="1.94"/>
  <rect class="cls-12" x="23.52" y="15.76" width="1.94" height="1.94"/>
  <rect class="cls-12" x="23.52" y="13.82" width="1.94" height="1.94"/>
  <rect class="cls-10" x="23.52" y="11.88" width="1.94" height="1.94"/>
  <rect class="cls-10" x="23.52" y="9.95" width="1.94" height="1.93"/>
  <rect class="cls-10" x="23.52" y="8.01" width="1.94" height="1.94"/>
  <rect class="cls-5" x="23.52" y="6.07" width="1.94" height="1.94"/>
  <rect class="cls-2" x="23.52" y="4.13" width="1.94" height="1.94"/>
  <rect class="cls-2" x="23.52" y="2.19" width="1.94" height="1.94"/>
  <rect class="cls-5" x="23.52" y=".25" width="1.94" height="1.94"/>
  <rect class="cls-7" x="21.58" y="56.5" width="1.94" height="1.94"/>
  <rect class="cls-7" x="21.58" y="54.56" width="1.94" height="1.94"/>
  <rect class="cls-7" x="21.58" y="52.62" width="1.94" height="1.94"/>
  <rect class="cls-7" x="21.58" y="50.68" width="1.94" height="1.94"/>
  <rect class="cls-7" x="21.58" y="48.74" width="1.94" height="1.94"/>
  <rect class="cls-7" x="21.58" y="46.8" width="1.94" height="1.94"/>
  <rect class="cls-5" x="21.58" y="44.86" width="1.94" height="1.94"/>
  <rect class="cls-4" x="21.58" y="42.92" width="1.94" height="1.94"/>
  <rect class="cls-4" x="21.58" y="40.98" width="1.94" height="1.94"/>
  <rect class="cls-5" x="21.58" y="39.04" width="1.94" height="1.94"/>
  <rect class="cls-10" x="21.58" y="37.1" width="1.94" height="1.94"/>
  <rect class="cls-10" x="21.58" y="35.16" width="1.94" height="1.94"/>
  <rect class="cls-10" x="21.58" y="33.22" width="1.94" height="1.94"/>
  <rect class="cls-10" x="21.58" y="31.28" width="1.94" height="1.94"/>
  <rect class="cls-12" x="21.58" y="29.34" width="1.94" height="1.94"/>
  <rect class="cls-12" x="21.58" y="27.4" width="1.94" height="1.94"/>
  <rect class="cls-12" x="21.58" y="25.46" width="1.94" height="1.94"/>
  <rect class="cls-12" x="21.58" y="23.52" width="1.94" height="1.94"/>
  <rect class="cls-6" x="21.58" y="21.58" width="1.94" height="1.94"/>
  <rect class="cls-12" x="21.58" y="19.64" width="1.94" height="1.94"/>
  <rect class="cls-12" x="21.58" y="17.7" width="1.94" height="1.94"/>
  <rect class="cls-12" x="21.58" y="15.76" width="1.94" height="1.94"/>
  <rect class="cls-12" x="21.58" y="13.82" width="1.94" height="1.94"/>
  <rect class="cls-10" x="21.58" y="11.88" width="1.94" height="1.94"/>
  <rect class="cls-10" x="21.58" y="9.95" width="1.94" height="1.93"/>
  <rect class="cls-10" x="21.58" y="8.01" width="1.94" height="1.94"/>
  <rect class="cls-5" x="21.58" y="6.07" width="1.94" height="1.94"/>
  <rect class="cls-2" x="21.58" y="4.13" width="1.94" height="1.94"/>
  <rect class="cls-2" x="21.58" y="2.19" width="1.94" height="1.94"/>
  <rect class="cls-5" x="21.58" y=".25" width="1.94" height="1.94"/>
  <rect class="cls-3" x="19.64" y="58.44" width="1.94" height="1.94"/>
  <rect class="cls-3" x="19.64" y="56.5" width="1.94" height="1.94"/>
  <rect class="cls-3" x="19.64" y="54.56" width="1.94" height="1.94"/>
  <rect class="cls-3" x="19.64" y="52.62" width="1.94" height="1.94"/>
  <rect class="cls-3" x="19.64" y="50.68" width="1.94" height="1.94"/>
  <rect class="cls-3" x="19.64" y="48.74" width="1.94" height="1.94"/>
  <rect class="cls-3" x="19.64" y="46.8" width="1.94" height="1.94"/>
  <rect class="cls-5" x="19.64" y="44.86" width="1.94" height="1.94"/>
  <rect class="cls-4" x="19.64" y="42.92" width="1.94" height="1.94"/>
  <rect class="cls-4" x="19.64" y="40.98" width="1.94" height="1.94"/>
  <rect class="cls-5" x="19.64" y="39.04" width="1.94" height="1.94"/>
  <rect class="cls-9" x="19.64" y="37.1" width="1.94" height="1.94"/>
  <rect class="cls-10" x="19.64" y="35.16" width="1.94" height="1.94"/>
  <rect class="cls-10" x="19.64" y="33.22" width="1.94" height="1.94"/>
  <rect class="cls-10" x="19.64" y="31.28" width="1.94" height="1.94"/>
  <rect class="cls-12" x="19.64" y="29.34" width="1.94" height="1.94"/>
  <rect class="cls-12" x="19.64" y="27.4" width="1.94" height="1.94"/>
  <rect class="cls-12" x="19.64" y="25.46" width="1.94" height="1.94"/>
  <rect class="cls-12" x="19.64" y="23.52" width="1.94" height="1.94"/>
  <rect class="cls-6" x="19.64" y="21.58" width="1.94" height="1.94"/>
  <rect class="cls-6" x="19.64" y="19.64" width="1.94" height="1.94"/>
  <rect class="cls-12" x="19.64" y="17.7" width="1.94" height="1.94"/>
  <rect class="cls-12" x="19.64" y="15.76" width="1.94" height="1.94"/>
  <rect class="cls-6" x="19.64" y="13.82" width="1.94" height="1.94"/>
  <rect class="cls-10" x="19.64" y="11.88" width="1.94" height="1.94"/>
  <rect class="cls-10" x="19.64" y="9.95" width="1.94" height="1.93"/>
  <rect class="cls-10" x="19.64" y="8.01" width="1.94" height="1.94"/>
  <rect class="cls-5" x="19.64" y="6.07" width="1.94" height="1.94"/>
  <rect class="cls-2" x="19.64" y="4.13" width="1.94" height="1.94"/>
  <rect class="cls-2" x="19.64" y="2.19" width="1.94" height="1.94"/>
  <rect class="cls-5" x="19.64" y=".25" width="1.94" height="1.94"/>
  <rect class="cls-3" x="17.7" y="60.37" width="1.94" height="1.94"/>
  <rect class="cls-3" x="17.7" y="58.44" width="1.94" height="1.94"/>
  <rect class="cls-3" x="17.7" y="56.5" width="1.94" height="1.94"/>
  <rect class="cls-3" x="17.7" y="54.56" width="1.94" height="1.94"/>
  <rect class="cls-3" x="17.7" y="52.62" width="1.94" height="1.94"/>
  <rect class="cls-3" x="17.7" y="50.68" width="1.94" height="1.94"/>
  <rect class="cls-3" x="17.7" y="48.74" width="1.94" height="1.94"/>
  <rect class="cls-3" x="17.7" y="46.8" width="1.94" height="1.94"/>
  <rect class="cls-5" x="17.7" y="44.86" width="1.94" height="1.94"/>
  <rect class="cls-8" x="17.7" y="42.92" width="1.94" height="1.94"/>
  <rect class="cls-4" x="17.7" y="40.98" width="1.94" height="1.94"/>
  <rect class="cls-4" x="17.7" y="39.04" width="1.94" height="1.94"/>
  <rect class="cls-5" x="17.7" y="37.1" width="1.94" height="1.94"/>
  <rect class="cls-9" x="17.7" y="35.16" width="1.94" height="1.94"/>
  <rect class="cls-10" x="17.7" y="33.22" width="1.94" height="1.94"/>
  <rect class="cls-10" x="17.7" y="31.28" width="1.94" height="1.94"/>
  <rect class="cls-12" x="17.7" y="29.34" width="1.94" height="1.94"/>
  <rect class="cls-12" x="17.7" y="27.4" width="1.94" height="1.94"/>
  <rect class="cls-12" x="17.7" y="25.46" width="1.94" height="1.94"/>
  <rect class="cls-6" x="17.7" y="23.52" width="1.94" height="1.94"/>
  <rect class="cls-6" x="17.7" y="21.58" width="1.94" height="1.94"/>
  <rect class="cls-9" x="17.7" y="19.64" width="1.94" height="1.94"/>
  <rect class="cls-6" x="17.7" y="17.7" width="1.94" height="1.94"/>
  <rect class="cls-6" x="17.7" y="15.76" width="1.94" height="1.94"/>
  <rect class="cls-10" x="17.7" y="13.82" width="1.94" height="1.94"/>
  <rect class="cls-10" x="17.7" y="11.88" width="1.94" height="1.94"/>
  <rect class="cls-10" x="17.7" y="9.95" width="1.94" height="1.93"/>
  <rect class="cls-5" x="17.7" y="8.01" width="1.94" height="1.94"/>
  <rect class="cls-4" x="17.7" y="6.07" width="1.94" height="1.94"/>
  <rect class="cls-2" x="17.7" y="4.13" width="1.94" height="1.94"/>
  <rect class="cls-2" x="17.7" y="2.19" width="1.94" height="1.94"/>
  <rect class="cls-5" x="17.7" y=".25" width="1.94" height="1.94"/>
  <rect class="cls-3" x="15.76" y="62.31" width="1.94" height="1.94"/>
  <rect class="cls-3" x="15.76" y="60.37" width="1.94" height="1.94"/>
  <rect class="cls-3" x="15.76" y="58.44" width="1.94" height="1.94"/>
  <rect class="cls-3" x="15.76" y="56.5" width="1.94" height="1.94"/>
  <rect class="cls-3" x="15.76" y="54.56" width="1.94" height="1.94"/>
  <rect class="cls-3" x="15.76" y="52.62" width="1.94" height="1.94"/>
  <rect class="cls-3" x="15.76" y="50.68" width="1.94" height="1.94"/>
  <rect class="cls-3" x="15.76" y="48.74" width="1.94" height="1.94"/>
  <rect class="cls-3" x="15.76" y="46.8" width="1.94" height="1.94"/>
  <rect class="cls-3" x="15.76" y="44.86" width="1.94" height="1.94"/>
  <rect class="cls-5" x="15.76" y="42.92" width="1.94" height="1.94"/>
  <rect class="cls-4" x="15.76" y="40.98" width="1.94" height="1.94"/>
  <rect class="cls-4" x="15.76" y="39.04" width="1.94" height="1.94"/>
  <rect class="cls-5" x="15.76" y="37.1" width="1.94" height="1.94"/>
  <rect class="cls-9" x="15.76" y="35.16" width="1.94" height="1.94"/>
  <rect class="cls-9" x="15.76" y="33.22" width="1.94" height="1.94"/>
  <rect class="cls-9" x="15.76" y="31.28" width="1.94" height="1.94"/>
  <rect class="cls-12" x="15.76" y="29.34" width="1.94" height="1.94"/>
  <rect class="cls-12" x="15.76" y="27.4" width="1.94" height="1.94"/>
  <rect class="cls-6" x="15.76" y="25.46" width="1.94" height="1.94"/>
  <rect class="cls-9" x="15.76" y="23.52" width="1.94" height="1.94"/>
  <rect class="cls-9" x="15.76" y="21.58" width="1.94" height="1.94"/>
  <rect class="cls-9" x="15.76" y="19.64" width="1.94" height="1.94"/>
  <rect class="cls-10" x="15.76" y="17.7" width="1.94" height="1.94"/>
  <rect class="cls-10" x="15.76" y="15.76" width="1.94" height="1.94"/>
  <rect class="cls-10" x="15.76" y="13.82" width="1.94" height="1.94"/>
  <rect class="cls-10" x="15.76" y="11.88" width="1.94" height="1.94"/>
  <rect class="cls-9" x="15.76" y="9.95" width="1.94" height="1.93"/>
  <rect class="cls-5" x="15.76" y="8.01" width="1.94" height="1.94"/>
  <rect class="cls-4" x="15.76" y="6.07" width="1.94" height="1.94"/>
  <rect class="cls-4" x="15.76" y="4.13" width="1.94" height="1.94"/>
  <rect class="cls-5" x="15.76" y="2.19" width="1.94" height="1.94"/>
  <rect class="cls-3" x="13.82" y="62.31" width="1.94" height="1.94"/>
  <rect class="cls-3" x="13.82" y="60.37" width="1.94" height="1.94"/>
  <rect class="cls-3" x="13.82" y="58.44" width="1.94" height="1.94"/>
  <rect class="cls-3" x="13.82" y="56.5" width="1.94" height="1.94"/>
  <rect class="cls-3" x="13.82" y="54.56" width="1.94" height="1.94"/>
  <rect class="cls-3" x="13.82" y="52.62" width="1.94" height="1.94"/>
  <rect class="cls-3" x="13.82" y="50.68" width="1.94" height="1.94"/>
  <rect class="cls-3" x="13.82" y="48.74" width="1.94" height="1.94"/>
  <rect class="cls-3" x="13.82" y="46.8" width="1.94" height="1.94"/>
  <rect class="cls-3" x="13.82" y="44.86" width="1.94" height="1.94"/>
  <rect class="cls-5" x="13.82" y="42.92" width="1.94" height="1.94"/>
  <rect class="cls-1" x="13.82" y="40.98" width="1.94" height="1.94"/>
  <rect class="cls-4" x="13.82" y="39.04" width="1.94" height="1.94"/>
  <rect class="cls-4" x="13.82" y="37.1" width="1.94" height="1.94"/>
  <rect class="cls-5" x="13.82" y="35.16" width="1.94" height="1.94"/>
  <rect class="cls-9" x="13.82" y="33.22" width="1.94" height="1.94"/>
  <rect class="cls-9" x="13.82" y="31.28" width="1.94" height="1.94"/>
  <rect class="cls-6" x="13.82" y="29.34" width="1.94" height="1.94"/>
  <rect class="cls-6" x="13.82" y="27.4" width="1.94" height="1.94"/>
  <rect class="cls-9" x="13.82" y="25.46" width="1.94" height="1.94"/>
  <rect class="cls-9" x="13.82" y="23.52" width="1.94" height="1.94"/>
  <rect class="cls-9" x="13.82" y="21.58" width="1.94" height="1.94"/>
  <rect class="cls-9" x="13.82" y="19.64" width="1.94" height="1.94"/>
  <rect class="cls-9" x="13.82" y="17.7" width="1.94" height="1.94"/>
  <rect class="cls-10" x="13.82" y="15.76" width="1.94" height="1.94"/>
  <rect class="cls-10" x="13.82" y="13.82" width="1.94" height="1.94"/>
  <rect class="cls-9" x="13.82" y="11.88" width="1.94" height="1.94"/>
  <rect class="cls-5" x="13.82" y="9.95" width="1.94" height="1.93"/>
  <rect class="cls-4" x="13.82" y="8.01" width="1.94" height="1.94"/>
  <rect class="cls-4" x="13.82" y="6.07" width="1.94" height="1.94"/>
  <rect class="cls-4" x="13.82" y="4.13" width="1.94" height="1.94"/>
  <rect class="cls-5" x="13.82" y="2.19" width="1.94" height="1.94"/>
  <rect class="cls-5" x="11.88" y="40.98" width="1.94" height="1.94"/>
  <rect class="cls-4" x="11.88" y="39.04" width="1.94" height="1.94"/>
  <rect class="cls-4" x="11.88" y="37.1" width="1.94" height="1.94"/>
  <rect class="cls-4" x="11.88" y="35.16" width="1.94" height="1.94"/>
  <rect class="cls-5" x="11.88" y="33.22" width="1.94" height="1.94"/>
  <rect class="cls-9" x="11.88" y="31.28" width="1.94" height="1.94"/>
  <rect class="cls-9" x="11.88" y="29.34" width="1.94" height="1.94"/>
  <rect class="cls-9" x="11.88" y="27.4" width="1.94" height="1.94"/>
  <rect class="cls-9" x="11.88" y="25.46" width="1.94" height="1.94"/>
  <rect class="cls-9" x="11.88" y="23.52" width="1.94" height="1.94"/>
  <rect class="cls-9" x="11.88" y="21.58" width="1.94" height="1.94"/>
  <rect class="cls-9" x="11.88" y="19.64" width="1.94" height="1.94"/>
  <rect class="cls-9" x="11.88" y="17.7" width="1.94" height="1.94"/>
  <rect class="cls-9" x="11.88" y="15.76" width="1.94" height="1.94"/>
  <rect class="cls-9" x="11.88" y="13.82" width="1.94" height="1.94"/>
  <rect class="cls-5" x="11.88" y="11.88" width="1.94" height="1.94"/>
  <rect class="cls-4" x="11.88" y="9.95" width="1.94" height="1.93"/>
  <rect class="cls-4" x="11.88" y="8.01" width="1.94" height="1.94"/>
  <rect class="cls-4" x="11.88" y="6.07" width="1.94" height="1.94"/>
  <rect class="cls-5" x="11.88" y="4.13" width="1.94" height="1.94"/>
  <rect class="cls-5" x="9.94" y="40.98" width="1.94" height="1.94"/>
  <rect class="cls-1" x="9.94" y="39.04" width="1.94" height="1.94"/>
  <rect class="cls-4" x="9.94" y="37.1" width="1.94" height="1.94"/>
  <rect class="cls-4" x="9.94" y="35.16" width="1.94" height="1.94"/>
  <rect class="cls-4" x="9.94" y="33.22" width="1.94" height="1.94"/>
  <rect class="cls-5" x="9.94" y="31.28" width="1.94" height="1.94"/>
  <rect class="cls-9" x="9.94" y="29.34" width="1.94" height="1.94"/>
  <rect class="cls-9" x="9.94" y="27.4" width="1.94" height="1.94"/>
  <rect class="cls-9" x="9.94" y="25.46" width="1.94" height="1.94"/>
  <rect class="cls-9" x="9.94" y="23.52" width="1.94" height="1.94"/>
  <rect class="cls-9" x="9.94" y="21.58" width="1.94" height="1.94"/>
  <rect class="cls-9" x="9.94" y="19.64" width="1.94" height="1.94"/>
  <rect class="cls-9" x="9.94" y="17.7" width="1.94" height="1.94"/>
  <rect class="cls-9" x="9.94" y="15.76" width="1.94" height="1.94"/>
  <rect class="cls-5" x="9.94" y="13.82" width="1.94" height="1.94"/>
  <rect class="cls-4" x="9.94" y="11.88" width="1.94" height="1.94"/>
  <rect class="cls-4" x="9.94" y="9.95" width="1.94" height="1.93"/>
  <rect class="cls-4" x="9.94" y="8.01" width="1.94" height="1.94"/>
  <rect class="cls-4" x="9.94" y="6.07" width="1.94" height="1.94"/>
  <rect class="cls-5" x="9.94" y="4.13" width="1.94" height="1.94"/>
  <rect class="cls-5" x="8.01" y="39.04" width="1.93" height="1.94"/>
  <rect class="cls-1" x="8.01" y="37.1" width="1.93" height="1.94"/>
  <rect class="cls-4" x="8.01" y="35.16" width="1.93" height="1.94"/>
  <rect class="cls-4" x="8.01" y="33.22" width="1.93" height="1.94"/>
  <rect class="cls-4" x="8.01" y="31.28" width="1.93" height="1.94"/>
  <rect class="cls-5" x="8.01" y="29.34" width="1.93" height="1.94"/>
  <rect class="cls-5" x="8.01" y="27.4" width="1.93" height="1.94"/>
  <rect class="cls-9" x="8.01" y="25.46" width="1.93" height="1.94"/>
  <rect class="cls-9" x="8.01" y="23.52" width="1.93" height="1.94"/>
  <rect class="cls-9" x="8.01" y="21.58" width="1.93" height="1.94"/>
  <rect class="cls-9" x="8.01" y="19.64" width="1.93" height="1.94"/>
  <rect class="cls-5" x="8.01" y="17.7" width="1.93" height="1.94"/>
  <rect class="cls-5" x="8.01" y="15.76" width="1.93" height="1.94"/>
  <rect class="cls-4" x="8.01" y="13.82" width="1.93" height="1.94"/>
  <rect class="cls-4" x="8.01" y="11.88" width="1.93" height="1.94"/>
  <rect class="cls-4" x="8.01" y="9.95" width="1.93" height="1.93"/>
  <rect class="cls-4" x="8.01" y="8.01" width="1.93" height="1.94"/>
  <rect class="cls-5" x="8.01" y="6.07" width="1.93" height="1.94"/>
  <rect class="cls-5" x="6.07" y="37.1" width="1.94" height="1.94"/>
  <rect class="cls-1" x="6.07" y="35.16" width="1.94" height="1.94"/>
  <rect class="cls-4" x="6.07" y="33.22" width="1.94" height="1.94"/>
  <rect class="cls-4" x="6.07" y="31.28" width="1.94" height="1.94"/>
  <rect class="cls-4" x="6.07" y="29.34" width="1.94" height="1.94"/>
  <rect class="cls-4" x="6.07" y="27.4" width="1.94" height="1.94"/>
  <rect class="cls-5" x="6.07" y="25.46" width="1.94" height="1.94"/>
  <rect class="cls-5" x="6.07" y="23.52" width="1.94" height="1.94"/>
  <rect class="cls-5" x="6.07" y="21.58" width="1.94" height="1.94"/>
  <rect class="cls-5" x="6.07" y="19.64" width="1.94" height="1.94"/>
  <rect class="cls-4" x="6.07" y="17.7" width="1.94" height="1.94"/>
  <rect class="cls-4" x="6.07" y="15.76" width="1.94" height="1.94"/>
  <rect class="cls-4" x="6.07" y="13.82" width="1.94" height="1.94"/>
  <rect class="cls-4" x="6.07" y="11.88" width="1.94" height="1.94"/>
  <rect class="cls-4" x="6.07" y="9.95" width="1.94" height="1.93"/>
  <rect class="cls-5" x="6.07" y="8.01" width="1.94" height="1.94"/>
  <rect class="cls-5" x="4.13" y="35.16" width="1.94" height="1.94"/>
  <rect class="cls-5" x="4.13" y="33.22" width="1.94" height="1.94"/>
  <rect class="cls-1" x="4.13" y="31.28" width="1.94" height="1.94"/>
  <rect class="cls-4" x="4.13" y="29.34" width="1.94" height="1.94"/>
  <rect class="cls-4" x="4.13" y="27.4" width="1.94" height="1.94"/>
  <rect class="cls-4" x="4.13" y="25.46" width="1.94" height="1.94"/>
  <rect class="cls-4" x="4.13" y="23.52" width="1.94" height="1.94"/>
  <rect class="cls-4" x="4.13" y="21.58" width="1.94" height="1.94"/>
  <rect class="cls-4" x="4.13" y="19.64" width="1.94" height="1.94"/>
  <rect class="cls-4" x="4.13" y="17.7" width="1.94" height="1.94"/>
  <rect class="cls-4" x="4.13" y="15.76" width="1.94" height="1.94"/>
  <rect class="cls-4" x="4.13" y="13.82" width="1.94" height="1.94"/>
  <rect class="cls-5" x="4.13" y="11.88" width="1.94" height="1.94"/>
  <rect class="cls-5" x="4.13" y="9.95" width="1.94" height="1.93"/>
  <rect class="cls-5" x="2.19" y="31.28" width="1.94" height="1.94"/>
  <rect class="cls-5" x="2.19" y="29.34" width="1.94" height="1.94"/>
  <rect class="cls-4" x="2.19" y="27.4" width="1.94" height="1.94"/>
  <rect class="cls-4" x="2.19" y="25.46" width="1.94" height="1.94"/>
  <rect class="cls-4" x="2.19" y="23.52" width="1.94" height="1.94"/>
  <rect class="cls-4" x="2.19" y="21.58" width="1.94" height="1.94"/>
  <rect class="cls-4" x="2.19" y="19.64" width="1.94" height="1.94"/>
  <rect class="cls-4" x="2.19" y="17.7" width="1.94" height="1.94"/>
  <rect class="cls-5" x="2.19" y="15.76" width="1.94" height="1.94"/>
  <rect class="cls-5" x="2.19" y="13.82" width="1.94" height="1.94"/>
  <rect class="cls-5" x=".25" y="27.4" width="1.94" height="1.94"/>
  <rect class="cls-5" x=".25" y="25.46" width="1.94" height="1.94"/>
  <rect class="cls-5" x=".25" y="23.52" width="1.94" height="1.94"/>
  <rect class="cls-5" x=".25" y="21.58" width="1.94" height="1.94"/>
  <rect class="cls-5" x=".25" y="19.64" width="1.94" height="1.94"/>
  <rect class="cls-5" x=".25" y="17.7" width="1.94" height="1.94"/>
</svg>