<?xml version="1.0" encoding="UTF-8"?>
<svg id="Capa_1" data-name="Capa 1" xmlns="http://www.w3.org/2000/svg" viewBox="0 0 24.74 32.5">
  <defs>
    <style>
      .cls-1 {
        fill: #c88826;
      }

      .cls-2 {
        fill: #e3c249;
      }

      .cls-3 {
        fill: #75aadb;
      }

      .cls-4 {
        fill: #d8a223;
      }

      .cls-5 {
        fill: #894528;
      }

      .cls-6 {
        fill: #9f5323;
      }

      .cls-7 {
        fill: #fff;
      }

      .cls-8 {
        fill: #d9a221;
      }

      .cls-9 {
        fill: #b66c23;
      }

      .cls-10 {
        fill: #cc892a;
      }

      .cls-11 {
        fill: #da9923;
      }

      .cls-12 {
        fill: #195942;
      }
    </style>
  </defs>
  <rect class="cls-5" x="23.52" y="13.82" width=".97" height=".97"/>
  <rect class="cls-5" x="23.52" y="12.86" width=".97" height=".97"/>
  <rect class="cls-5" x="23.52" y="11.89" width=".97" height=".97"/>
  <rect class="cls-5" x="23.52" y="10.92" width=".97" height=".97"/>
  <rect class="cls-5" x="23.52" y="9.95" width=".97" height=".97"/>
  <rect class="cls-5" x="23.52" y="8.98" width=".97" height=".97"/>
  <rect class="cls-5" x="22.55" y="15.77" width=".97" height=".97"/>
  <rect class="cls-5" x="22.55" y="14.79" width=".97" height=".97"/>
  <rect class="cls-8" x="22.55" y="13.82" width=".97" height=".97"/>
  <rect class="cls-2" x="22.55" y="12.86" width=".97" height=".97"/>
  <rect class="cls-2" x="22.55" y="11.89" width=".97" height=".97"/>
  <rect class="cls-2" x="22.55" y="10.92" width=".97" height=".97"/>
  <rect class="cls-2" x="22.55" y="9.95" width=".97" height=".97"/>
  <rect class="cls-8" x="22.55" y="8.98" width=".97" height=".97"/>
  <rect class="cls-5" x="22.55" y="8.01" width=".97" height=".97"/>
  <rect class="cls-5" x="22.55" y="7.04" width=".97" height=".97"/>
  <rect class="cls-5" x="21.58" y="17.71" width=".97" height=".97"/>
  <rect class="cls-5" x="21.58" y="16.74" width=".97" height=".97"/>
  <rect class="cls-8" x="21.58" y="15.77" width=".97" height=".97"/>
  <rect class="cls-2" x="21.58" y="14.79" width=".97" height=".97"/>
  <rect class="cls-2" x="21.58" y="13.82" width=".97" height=".97"/>
  <rect class="cls-2" x="21.58" y="12.86" width=".97" height=".97"/>
  <rect class="cls-2" x="21.58" y="11.89" width=".97" height=".97"/>
  <rect class="cls-2" x="21.58" y="10.92" width=".97" height=".97"/>
  <rect class="cls-2" x="21.58" y="9.95" width=".97" height=".97"/>
  <rect class="cls-2" x="21.58" y="8.98" width=".97" height=".97"/>
  <rect class="cls-2" x="21.58" y="8.01" width=".97" height=".97"/>
  <rect class="cls-8" x="21.58" y="7.04" width=".97" height=".97"/>
  <rect class="cls-5" x="21.58" y="6.07" width=".97" height=".97"/>
  <rect class="cls-5" x="21.58" y="5.1" width=".97" height=".97"/>
  <rect class="cls-5" x="20.61" y="18.67" width=".97" height=".97"/>
  <rect class="cls-8" x="20.61" y="17.71" width=".97" height=".97"/>
  <rect class="cls-2" x="20.61" y="16.74" width=".97" height=".97"/>
  <rect class="cls-2" x="20.61" y="15.77" width=".97" height=".97"/>
  <rect class="cls-2" x="20.61" y="14.79" width=".97" height=".97"/>
  <rect class="cls-2" x="20.61" y="13.82" width=".97" height=".97"/>
  <rect class="cls-5" x="20.61" y="12.86" width=".97" height=".97"/>
  <rect class="cls-5" x="20.61" y="11.89" width=".97" height=".97"/>
  <rect class="cls-5" x="20.61" y="10.92" width=".97" height=".97"/>
  <rect class="cls-5" x="20.61" y="9.95" width=".97" height=".97"/>
  <rect class="cls-2" x="20.61" y="8.98" width=".97" height=".97"/>
  <rect class="cls-2" x="20.61" y="8.01" width=".97" height=".97"/>
  <rect class="cls-2" x="20.61" y="7.04" width=".97" height=".97"/>
  <rect class="cls-2" x="20.61" y="6.07" width=".97" height=".97"/>
  <rect class="cls-8" x="20.61" y="5.1" width=".97" height=".97"/>
  <rect class="cls-5" x="20.61" y="4.13" width=".97" height=".97"/>
  <rect class="cls-5" x="19.64" y="19.64" width=".97" height=".97"/>
  <rect class="cls-8" x="19.64" y="18.67" width=".97" height=".97"/>
  <rect class="cls-2" x="19.64" y="17.71" width=".97" height=".97"/>
  <rect class="cls-2" x="19.64" y="16.74" width=".97" height=".97"/>
  <rect class="cls-2" x="19.64" y="15.77" width=".97" height=".97"/>
  <rect class="cls-5" x="19.64" y="14.79" width=".97" height=".97"/>
  <rect class="cls-5" x="19.64" y="13.82" width=".97" height=".97"/>
  <rect class="cls-10" x="19.64" y="12.86" width=".97" height=".97"/>
  <rect class="cls-11" x="19.64" y="11.89" width=".97" height=".97"/>
  <rect class="cls-11" x="19.64" y="10.92" width=".97" height=".97"/>
  <rect class="cls-11" x="19.64" y="9.95" width=".97" height=".97"/>
  <rect class="cls-5" x="19.64" y="8.98" width=".97" height=".97"/>
  <rect class="cls-5" x="19.64" y="8.01" width=".97" height=".97"/>
  <rect class="cls-2" x="19.64" y="7.04" width=".97" height=".97"/>
  <rect class="cls-2" x="19.64" y="6.07" width=".97" height=".97"/>
  <rect class="cls-2" x="19.64" y="5.1" width=".97" height=".97"/>
  <rect class="cls-8" x="19.64" y="4.13" width=".97" height=".97"/>
  <rect class="cls-5" x="19.64" y="3.16" width=".97" height=".97"/>
  <rect class="cls-5" x="18.67" y="20.61" width=".97" height=".97"/>
  <rect class="cls-8" x="18.67" y="19.64" width=".97" height=".97"/>
  <rect class="cls-2" x="18.67" y="18.67" width=".97" height=".97"/>
  <rect class="cls-2" x="18.67" y="17.71" width=".97" height=".97"/>
  <rect class="cls-2" x="18.67" y="16.74" width=".97" height=".97"/>
  <rect class="cls-5" x="18.67" y="15.77" width=".97" height=".97"/>
  <rect class="cls-10" x="18.67" y="14.79" width=".97" height=".97"/>
  <rect class="cls-11" x="18.67" y="13.82" width=".97" height=".97"/>
  <rect class="cls-11" x="18.67" y="12.86" width=".97" height=".97"/>
  <rect class="cls-11" x="18.67" y="11.89" width=".97" height=".97"/>
  <rect class="cls-11" x="18.67" y="10.92" width=".97" height=".97"/>
  <rect class="cls-11" x="18.67" y="9.95" width=".97" height=".97"/>
  <rect class="cls-11" x="18.67" y="8.98" width=".97" height=".97"/>
  <rect class="cls-10" x="18.67" y="8.01" width=".97" height=".97"/>
  <rect class="cls-5" x="18.67" y="7.04" width=".97" height=".97"/>
  <rect class="cls-2" x="18.67" y="6.07" width=".97" height=".97"/>
  <rect class="cls-2" x="18.67" y="5.1" width=".97" height=".97"/>
  <rect class="cls-2" x="18.67" y="4.13" width=".97" height=".97"/>
  <rect class="cls-8" x="18.67" y="3.16" width=".97" height=".97"/>
  <rect class="cls-5" x="18.67" y="2.19" width=".97" height=".97"/>
  <rect class="cls-5" x="17.7" y="20.61" width=".97" height=".97"/>
  <rect class="cls-2" x="17.7" y="19.64" width=".97" height=".97"/>
  <rect class="cls-2" x="17.7" y="18.67" width=".97" height=".97"/>
  <rect class="cls-2" x="17.7" y="17.71" width=".97" height=".97"/>
  <rect class="cls-5" x="17.7" y="16.74" width=".97" height=".97"/>
  <rect class="cls-10" x="17.7" y="15.77" width=".97" height=".97"/>
  <rect class="cls-11" x="17.7" y="14.79" width=".97" height=".97"/>
  <rect class="cls-11" x="17.7" y="13.82" width=".97" height=".97"/>
  <rect class="cls-11" x="17.7" y="12.86" width=".97" height=".97"/>
  <rect class="cls-11" x="17.7" y="11.89" width=".97" height=".97"/>
  <rect class="cls-11" x="17.7" y="10.92" width=".97" height=".97"/>
  <rect class="cls-11" x="17.7" y="9.95" width=".97" height=".97"/>
  <rect class="cls-11" x="17.7" y="8.98" width=".97" height=".97"/>
  <rect class="cls-11" x="17.7" y="8.01" width=".97" height=".97"/>
  <rect class="cls-10" x="17.7" y="7.04" width=".97" height=".97"/>
  <rect class="cls-5" x="17.7" y="6.07" width=".97" height=".97"/>
  <rect class="cls-2" x="17.7" y="5.1" width=".97" height=".97"/>
  <rect class="cls-2" x="17.7" y="4.13" width=".97" height=".97"/>
  <rect class="cls-2" x="17.7" y="3.16" width=".97" height=".97"/>
  <rect class="cls-5" x="17.7" y="2.19" width=".97" height=".97"/>
  <rect class="cls-3" x="16.73" y="31.28" width=".97" height=".97"/>
  <rect class="cls-3" x="16.73" y="30.31" width=".97" height=".97"/>
  <rect class="cls-3" x="16.73" y="29.34" width=".97" height=".97"/>
  <rect class="cls-3" x="16.73" y="28.37" width=".97" height=".97"/>
  <rect class="cls-3" x="16.73" y="27.4" width=".97" height=".97"/>
  <rect class="cls-3" x="16.73" y="26.43" width=".97" height=".97"/>
  <rect class="cls-3" x="16.73" y="25.46" width=".97" height=".97"/>
  <rect class="cls-3" x="16.73" y="24.49" width=".97" height=".97"/>
  <rect class="cls-3" x="16.73" y="23.52" width=".97" height=".97"/>
  <rect class="cls-3" x="16.73" y="22.55" width=".97" height=".97"/>
  <rect class="cls-5" x="16.73" y="21.58" width=".97" height=".97"/>
  <rect class="cls-8" x="16.73" y="20.61" width=".97" height=".97"/>
  <rect class="cls-2" x="16.73" y="19.64" width=".97" height=".97"/>
  <rect class="cls-2" x="16.73" y="18.67" width=".97" height=".97"/>
  <rect class="cls-5" x="16.73" y="17.71" width=".97" height=".97"/>
  <rect class="cls-10" x="16.73" y="16.74" width=".97" height=".97"/>
  <rect class="cls-11" x="16.73" y="15.77" width=".97" height=".97"/>
  <rect class="cls-11" x="16.73" y="14.79" width=".97" height=".97"/>
  <rect class="cls-11" x="16.73" y="13.82" width=".97" height=".97"/>
  <rect class="cls-11" x="16.73" y="12.86" width=".97" height=".97"/>
  <rect class="cls-11" x="16.73" y="11.89" width=".97" height=".97"/>
  <rect class="cls-11" x="16.73" y="10.92" width=".97" height=".97"/>
  <rect class="cls-11" x="16.73" y="9.95" width=".97" height=".97"/>
  <rect class="cls-11" x="16.73" y="8.98" width=".97" height=".97"/>
  <rect class="cls-11" x="16.73" y="8.01" width=".97" height=".97"/>
  <rect class="cls-11" x="16.73" y="7.04" width=".97" height=".97"/>
  <rect class="cls-10" x="16.73" y="6.07" width=".97" height=".97"/>
  <rect class="cls-5" x="16.73" y="5.1" width=".97" height=".97"/>
  <rect class="cls-2" x="16.73" y="4.13" width=".97" height=".97"/>
  <rect class="cls-2" x="16.73" y="3.16" width=".97" height=".97"/>
  <rect class="cls-8" x="16.73" y="2.19" width=".97" height=".97"/>
  <rect class="cls-5" x="16.73" y="1.22" width=".97" height=".97"/>
  <rect class="cls-3" x="15.77" y="31.28" width=".97" height=".97"/>
  <rect class="cls-3" x="15.77" y="30.31" width=".97" height=".97"/>
  <rect class="cls-3" x="15.77" y="29.34" width=".97" height=".97"/>
  <rect class="cls-3" x="15.77" y="28.37" width=".97" height=".97"/>
  <rect class="cls-3" x="15.77" y="27.4" width=".97" height=".97"/>
  <rect class="cls-3" x="15.77" y="26.43" width=".97" height=".97"/>
  <rect class="cls-3" x="15.77" y="25.46" width=".97" height=".97"/>
  <rect class="cls-3" x="15.77" y="24.49" width=".97" height=".97"/>
  <rect class="cls-3" x="15.77" y="23.52" width=".97" height=".97"/>
  <rect class="cls-3" x="15.77" y="22.55" width=".97" height=".97"/>
  <rect class="cls-5" x="15.77" y="21.58" width=".97" height=".97"/>
  <rect class="cls-2" x="15.77" y="20.61" width=".97" height=".97"/>
  <rect class="cls-2" x="15.77" y="19.64" width=".97" height=".97"/>
  <rect class="cls-5" x="15.77" y="18.67" width=".97" height=".97"/>
  <rect class="cls-10" x="15.77" y="17.71" width=".97" height=".97"/>
  <rect class="cls-11" x="15.77" y="16.74" width=".97" height=".97"/>
  <rect class="cls-11" x="15.77" y="15.77" width=".97" height=".97"/>
  <rect class="cls-12" x="15.77" y="14.79" width=".97" height=".97"/>
  <rect class="cls-12" x="15.77" y="13.82" width=".97" height=".97"/>
  <rect class="cls-11" x="15.77" y="12.86" width=".97" height=".97"/>
  <rect class="cls-11" x="15.77" y="11.89" width=".97" height=".97"/>
  <rect class="cls-11" x="15.77" y="10.92" width=".97" height=".97"/>
  <rect class="cls-11" x="15.77" y="9.95" width=".97" height=".97"/>
  <rect class="cls-11" x="15.77" y="8.98" width=".97" height=".97"/>
  <rect class="cls-11" x="15.77" y="8.01" width=".97" height=".97"/>
  <rect class="cls-11" x="15.77" y="7.04" width=".97" height=".97"/>
  <rect class="cls-11" x="15.77" y="6.07" width=".97" height=".97"/>
  <rect class="cls-10" x="15.77" y="5.1" width=".97" height=".97"/>
  <rect class="cls-5" x="15.77" y="4.13" width=".97" height=".97"/>
  <rect class="cls-2" x="15.77" y="3.16" width=".97" height=".97"/>
  <rect class="cls-2" x="15.77" y="2.19" width=".97" height=".97"/>
  <rect class="cls-5" x="15.77" y="1.22" width=".97" height=".97"/>
  <rect class="cls-3" x="14.8" y="30.31" width=".97" height=".97"/>
  <rect class="cls-3" x="14.8" y="29.34" width=".97" height=".97"/>
  <rect class="cls-3" x="14.8" y="28.37" width=".97" height=".97"/>
  <rect class="cls-3" x="14.8" y="27.4" width=".97" height=".97"/>
  <rect class="cls-3" x="14.8" y="26.43" width=".97" height=".97"/>
  <rect class="cls-3" x="14.8" y="25.46" width=".97" height=".97"/>
  <rect class="cls-3" x="14.8" y="24.49" width=".97" height=".97"/>
  <rect class="cls-3" x="14.8" y="23.52" width=".97" height=".97"/>
  <rect class="cls-5" x="14.8" y="22.55" width=".97" height=".97"/>
  <rect class="cls-4" x="14.8" y="21.58" width=".97" height=".97"/>
  <rect class="cls-2" x="14.8" y="20.61" width=".97" height=".97"/>
  <rect class="cls-2" x="14.8" y="19.64" width=".97" height=".97"/>
  <rect class="cls-5" x="14.8" y="18.67" width=".97" height=".97"/>
  <rect class="cls-11" x="14.8" y="17.71" width=".97" height=".97"/>
  <rect class="cls-11" x="14.8" y="16.74" width=".97" height=".97"/>
  <rect class="cls-11" x="14.8" y="15.77" width=".97" height=".97"/>
  <rect class="cls-12" x="14.8" y="14.79" width=".97" height=".97"/>
  <rect class="cls-12" x="14.8" y="13.82" width=".97" height=".97"/>
  <rect class="cls-12" x="14.8" y="12.86" width=".97" height=".97"/>
  <rect class="cls-11" x="14.8" y="11.89" width=".97" height=".97"/>
  <rect class="cls-11" x="14.8" y="10.92" width=".97" height=".97"/>
  <rect class="cls-11" x="14.8" y="9.95" width=".97" height=".97"/>
  <rect class="cls-11" x="14.8" y="8.98" width=".97" height=".97"/>
  <rect class="cls-11" x="14.8" y="8.01" width=".97" height=".97"/>
  <rect class="cls-11" x="14.8" y="7.04" width=".97" height=".97"/>
  <rect class="cls-11" x="14.8" y="6.07" width=".97" height=".97"/>
  <rect class="cls-11" x="14.8" y="5.1" width=".97" height=".97"/>
  <rect class="cls-5" x="14.8" y="4.13" width=".97" height=".97"/>
  <rect class="cls-2" x="14.8" y="3.16" width=".97" height=".97"/>
  <rect class="cls-2" x="14.8" y="2.19" width=".97" height=".97"/>
  <rect class="cls-8" x="14.8" y="1.22" width=".97" height=".97"/>
  <rect class="cls-5" x="14.8" y=".25" width=".97" height=".97"/>
  <rect class="cls-3" x="13.83" y="29.34" width=".97" height=".97"/>
  <rect class="cls-3" x="13.83" y="28.37" width=".97" height=".97"/>
  <rect class="cls-3" x="13.83" y="27.4" width=".97" height=".97"/>
  <rect class="cls-3" x="13.83" y="26.43" width=".97" height=".97"/>
  <rect class="cls-3" x="13.83" y="25.46" width=".97" height=".97"/>
  <rect class="cls-3" x="13.83" y="24.49" width=".97" height=".97"/>
  <rect class="cls-3" x="13.83" y="23.52" width=".97" height=".97"/>
  <rect class="cls-5" x="13.83" y="22.55" width=".97" height=".97"/>
  <rect class="cls-4" x="13.83" y="21.58" width=".97" height=".97"/>
  <rect class="cls-2" x="13.83" y="20.61" width=".97" height=".97"/>
  <rect class="cls-5" x="13.83" y="19.64" width=".97" height=".97"/>
  <rect class="cls-10" x="13.83" y="18.67" width=".97" height=".97"/>
  <rect class="cls-11" x="13.83" y="17.71" width=".97" height=".97"/>
  <rect class="cls-11" x="13.83" y="16.74" width=".97" height=".97"/>
  <rect class="cls-11" x="13.83" y="15.77" width=".97" height=".97"/>
  <rect class="cls-12" x="13.83" y="14.79" width=".97" height=".97"/>
  <rect class="cls-12" x="13.83" y="13.82" width=".97" height=".97"/>
  <rect class="cls-12" x="13.83" y="12.86" width=".97" height=".97"/>
  <rect class="cls-12" x="13.83" y="11.89" width=".97" height=".97"/>
  <rect class="cls-11" x="13.83" y="10.92" width=".97" height=".97"/>
  <rect class="cls-11" x="13.83" y="9.95" width=".97" height=".97"/>
  <rect class="cls-12" x="13.83" y="8.98" width=".97" height=".97"/>
  <rect class="cls-12" x="13.83" y="8.01" width=".97" height=".97"/>
  <rect class="cls-11" x="13.83" y="7.04" width=".97" height=".97"/>
  <rect class="cls-11" x="13.83" y="6.07" width=".97" height=".97"/>
  <rect class="cls-11" x="13.83" y="5.1" width=".97" height=".97"/>
  <rect class="cls-10" x="13.83" y="4.13" width=".97" height=".97"/>
  <rect class="cls-5" x="13.83" y="3.16" width=".97" height=".97"/>
  <rect class="cls-2" x="13.83" y="2.19" width=".97" height=".97"/>
  <rect class="cls-2" x="13.83" y="1.22" width=".97" height=".97"/>
  <rect class="cls-5" x="13.83" y=".25" width=".97" height=".97"/>
  <rect class="cls-7" x="12.86" y="28.37" width=".97" height=".97"/>
  <rect class="cls-7" x="12.86" y="27.4" width=".97" height=".97"/>
  <rect class="cls-7" x="12.86" y="26.43" width=".97" height=".97"/>
  <rect class="cls-7" x="12.86" y="25.46" width=".97" height=".97"/>
  <rect class="cls-7" x="12.86" y="24.49" width=".97" height=".97"/>
  <rect class="cls-7" x="12.86" y="23.52" width=".97" height=".97"/>
  <rect class="cls-5" x="12.86" y="22.55" width=".97" height=".97"/>
  <rect class="cls-4" x="12.86" y="21.58" width=".97" height=".97"/>
  <rect class="cls-2" x="12.86" y="20.61" width=".97" height=".97"/>
  <rect class="cls-5" x="12.86" y="19.64" width=".97" height=".97"/>
  <rect class="cls-10" x="12.86" y="18.67" width=".97" height=".97"/>
  <rect class="cls-11" x="12.86" y="17.71" width=".97" height=".97"/>
  <rect class="cls-11" x="12.86" y="16.74" width=".97" height=".97"/>
  <rect class="cls-11" x="12.86" y="15.77" width=".97" height=".97"/>
  <rect class="cls-12" x="12.86" y="14.79" width=".97" height=".97"/>
  <rect class="cls-12" x="12.86" y="13.82" width=".97" height=".97"/>
  <rect class="cls-12" x="12.86" y="12.86" width=".97" height=".97"/>
  <rect class="cls-12" x="12.86" y="11.89" width=".97" height=".97"/>
  <rect class="cls-11" x="12.86" y="10.92" width=".97" height=".97"/>
  <rect class="cls-12" x="12.86" y="9.95" width=".97" height=".97"/>
  <rect class="cls-12" x="12.86" y="8.98" width=".97" height=".97"/>
  <rect class="cls-12" x="12.86" y="8.01" width=".97" height=".97"/>
  <rect class="cls-12" x="12.86" y="7.04" width=".97" height=".97"/>
  <rect class="cls-11" x="12.86" y="6.07" width=".97" height=".97"/>
  <rect class="cls-11" x="12.86" y="5.1" width=".97" height=".97"/>
  <rect class="cls-10" x="12.86" y="4.13" width=".97" height=".97"/>
  <rect class="cls-5" x="12.86" y="3.16" width=".97" height=".97"/>
  <rect class="cls-2" x="12.86" y="2.19" width=".97" height=".97"/>
  <rect class="cls-2" x="12.86" y="1.22" width=".97" height=".97"/>
  <rect class="cls-5" x="12.86" y=".25" width=".97" height=".97"/>
  <rect class="cls-7" x="11.88" y="28.37" width=".97" height=".97"/>
  <rect class="cls-7" x="11.88" y="27.4" width=".97" height=".97"/>
  <rect class="cls-7" x="11.88" y="26.43" width=".97" height=".97"/>
  <rect class="cls-7" x="11.88" y="25.46" width=".97" height=".97"/>
  <rect class="cls-7" x="11.88" y="24.49" width=".97" height=".97"/>
  <rect class="cls-7" x="11.88" y="23.52" width=".97" height=".97"/>
  <rect class="cls-5" x="11.88" y="22.55" width=".97" height=".97"/>
  <rect class="cls-4" x="11.88" y="21.58" width=".97" height=".97"/>
  <rect class="cls-2" x="11.88" y="20.61" width=".97" height=".97"/>
  <rect class="cls-5" x="11.88" y="19.64" width=".97" height=".97"/>
  <rect class="cls-10" x="11.88" y="18.67" width=".97" height=".97"/>
  <rect class="cls-10" x="11.88" y="17.71" width=".97" height=".97"/>
  <rect class="cls-10" x="11.88" y="16.74" width=".97" height=".97"/>
  <rect class="cls-10" x="11.88" y="15.77" width=".97" height=".97"/>
  <rect class="cls-12" x="11.88" y="14.79" width=".97" height=".97"/>
  <rect class="cls-12" x="11.88" y="13.82" width=".97" height=".97"/>
  <rect class="cls-12" x="11.88" y="12.86" width=".97" height=".97"/>
  <rect class="cls-12" x="11.88" y="11.89" width=".97" height=".97"/>
  <rect class="cls-6" x="11.88" y="10.92" width=".97" height=".97"/>
  <rect class="cls-12" x="11.88" y="9.95" width=".97" height=".97"/>
  <rect class="cls-12" x="11.88" y="8.98" width=".97" height=".97"/>
  <rect class="cls-12" x="11.88" y="8.01" width=".97" height=".97"/>
  <rect class="cls-12" x="11.88" y="7.04" width=".97" height=".97"/>
  <rect class="cls-10" x="11.88" y="6.07" width=".97" height=".97"/>
  <rect class="cls-10" x="11.88" y="5.1" width=".97" height=".97"/>
  <rect class="cls-10" x="11.88" y="4.13" width=".97" height=".97"/>
  <rect class="cls-5" x="11.88" y="3.16" width=".97" height=".97"/>
  <rect class="cls-2" x="11.88" y="2.19" width=".97" height=".97"/>
  <rect class="cls-2" x="11.88" y="1.22" width=".97" height=".97"/>
  <rect class="cls-5" x="11.88" y=".25" width=".97" height=".97"/>
  <rect class="cls-7" x="10.92" y="28.37" width=".97" height=".97"/>
  <rect class="cls-7" x="10.92" y="27.4" width=".97" height=".97"/>
  <rect class="cls-7" x="10.92" y="26.43" width=".97" height=".97"/>
  <rect class="cls-7" x="10.92" y="25.46" width=".97" height=".97"/>
  <rect class="cls-7" x="10.92" y="24.49" width=".97" height=".97"/>
  <rect class="cls-7" x="10.92" y="23.52" width=".97" height=".97"/>
  <rect class="cls-5" x="10.92" y="22.55" width=".97" height=".97"/>
  <rect class="cls-4" x="10.92" y="21.58" width=".97" height=".97"/>
  <rect class="cls-4" x="10.92" y="20.61" width=".97" height=".97"/>
  <rect class="cls-5" x="10.92" y="19.64" width=".97" height=".97"/>
  <rect class="cls-10" x="10.92" y="18.67" width=".97" height=".97"/>
  <rect class="cls-10" x="10.92" y="17.71" width=".97" height=".97"/>
  <rect class="cls-10" x="10.92" y="16.74" width=".97" height=".97"/>
  <rect class="cls-10" x="10.92" y="15.77" width=".97" height=".97"/>
  <rect class="cls-12" x="10.92" y="14.79" width=".97" height=".97"/>
  <rect class="cls-12" x="10.92" y="13.82" width=".97" height=".97"/>
  <rect class="cls-12" x="10.92" y="12.86" width=".97" height=".97"/>
  <rect class="cls-12" x="10.92" y="11.89" width=".97" height=".97"/>
  <rect class="cls-6" x="10.92" y="10.92" width=".97" height=".97"/>
  <rect class="cls-12" x="10.92" y="9.95" width=".97" height=".97"/>
  <rect class="cls-12" x="10.92" y="8.98" width=".97" height=".97"/>
  <rect class="cls-12" x="10.92" y="8.01" width=".97" height=".97"/>
  <rect class="cls-12" x="10.92" y="7.04" width=".97" height=".97"/>
  <rect class="cls-10" x="10.92" y="6.07" width=".97" height=".97"/>
  <rect class="cls-10" x="10.92" y="5.1" width=".97" height=".97"/>
  <rect class="cls-10" x="10.92" y="4.13" width=".97" height=".97"/>
  <rect class="cls-5" x="10.92" y="3.16" width=".97" height=".97"/>
  <rect class="cls-2" x="10.92" y="2.19" width=".97" height=".97"/>
  <rect class="cls-2" x="10.92" y="1.22" width=".97" height=".97"/>
  <rect class="cls-5" x="10.92" y=".25" width=".97" height=".97"/>
  <rect class="cls-3" x="9.95" y="29.34" width=".97" height=".97"/>
  <rect class="cls-3" x="9.95" y="28.37" width=".97" height=".97"/>
  <rect class="cls-3" x="9.95" y="27.4" width=".97" height=".97"/>
  <rect class="cls-3" x="9.95" y="26.43" width=".97" height=".97"/>
  <rect class="cls-3" x="9.95" y="25.46" width=".97" height=".97"/>
  <rect class="cls-3" x="9.95" y="24.49" width=".97" height=".97"/>
  <rect class="cls-3" x="9.95" y="23.52" width=".97" height=".97"/>
  <rect class="cls-5" x="9.95" y="22.55" width=".97" height=".97"/>
  <rect class="cls-4" x="9.95" y="21.58" width=".97" height=".97"/>
  <rect class="cls-4" x="9.95" y="20.61" width=".97" height=".97"/>
  <rect class="cls-5" x="9.95" y="19.64" width=".97" height=".97"/>
  <rect class="cls-9" x="9.95" y="18.67" width=".97" height=".97"/>
  <rect class="cls-10" x="9.95" y="17.71" width=".97" height=".97"/>
  <rect class="cls-10" x="9.95" y="16.74" width=".97" height=".97"/>
  <rect class="cls-10" x="9.95" y="15.77" width=".97" height=".97"/>
  <rect class="cls-12" x="9.95" y="14.79" width=".97" height=".97"/>
  <rect class="cls-12" x="9.95" y="13.82" width=".97" height=".97"/>
  <rect class="cls-12" x="9.95" y="12.86" width=".97" height=".97"/>
  <rect class="cls-12" x="9.95" y="11.89" width=".97" height=".97"/>
  <rect class="cls-6" x="9.95" y="10.92" width=".97" height=".97"/>
  <rect class="cls-6" x="9.95" y="9.95" width=".97" height=".97"/>
  <rect class="cls-12" x="9.95" y="8.98" width=".97" height=".97"/>
  <rect class="cls-12" x="9.95" y="8.01" width=".97" height=".97"/>
  <rect class="cls-6" x="9.95" y="7.04" width=".97" height=".97"/>
  <rect class="cls-10" x="9.95" y="6.07" width=".97" height=".97"/>
  <rect class="cls-10" x="9.95" y="5.1" width=".97" height=".97"/>
  <rect class="cls-10" x="9.95" y="4.13" width=".97" height=".97"/>
  <rect class="cls-5" x="9.95" y="3.16" width=".97" height=".97"/>
  <rect class="cls-2" x="9.95" y="2.19" width=".97" height=".97"/>
  <rect class="cls-2" x="9.95" y="1.22" width=".97" height=".97"/>
  <rect class="cls-5" x="9.95" y=".25" width=".97" height=".97"/>
  <rect class="cls-3" x="8.98" y="30.31" width=".97" height=".97"/>
  <rect class="cls-3" x="8.98" y="29.34" width=".97" height=".97"/>
  <rect class="cls-3" x="8.98" y="28.37" width=".97" height=".97"/>
  <rect class="cls-3" x="8.98" y="27.4" width=".97" height=".97"/>
  <rect class="cls-3" x="8.98" y="26.43" width=".97" height=".97"/>
  <rect class="cls-3" x="8.98" y="25.46" width=".97" height=".97"/>
  <rect class="cls-3" x="8.98" y="24.49" width=".97" height=".97"/>
  <rect class="cls-3" x="8.98" y="23.52" width=".97" height=".97"/>
  <rect class="cls-5" x="8.98" y="22.55" width=".97" height=".97"/>
  <rect class="cls-8" x="8.98" y="21.58" width=".97" height=".97"/>
  <rect class="cls-4" x="8.98" y="20.61" width=".97" height=".97"/>
  <rect class="cls-4" x="8.98" y="19.64" width=".97" height=".97"/>
  <rect class="cls-5" x="8.98" y="18.67" width=".97" height=".97"/>
  <rect class="cls-9" x="8.98" y="17.71" width=".97" height=".97"/>
  <rect class="cls-10" x="8.98" y="16.74" width=".97" height=".97"/>
  <rect class="cls-10" x="8.98" y="15.77" width=".97" height=".97"/>
  <rect class="cls-12" x="8.98" y="14.79" width=".97" height=".97"/>
  <rect class="cls-12" x="8.98" y="13.82" width=".97" height=".97"/>
  <rect class="cls-12" x="8.98" y="12.86" width=".97" height=".97"/>
  <rect class="cls-6" x="8.98" y="11.89" width=".97" height=".97"/>
  <rect class="cls-6" x="8.98" y="10.92" width=".97" height=".97"/>
  <rect class="cls-9" x="8.98" y="9.95" width=".97" height=".97"/>
  <rect class="cls-6" x="8.98" y="8.98" width=".97" height=".97"/>
  <rect class="cls-6" x="8.98" y="8.01" width=".97" height=".97"/>
  <rect class="cls-10" x="8.98" y="7.04" width=".97" height=".97"/>
  <rect class="cls-10" x="8.98" y="6.07" width=".97" height=".97"/>
  <rect class="cls-10" x="8.98" y="5.1" width=".97" height=".97"/>
  <rect class="cls-5" x="8.98" y="4.13" width=".97" height=".97"/>
  <rect class="cls-4" x="8.98" y="3.16" width=".97" height=".97"/>
  <rect class="cls-2" x="8.98" y="2.19" width=".97" height=".97"/>
  <rect class="cls-2" x="8.98" y="1.22" width=".97" height=".97"/>
  <rect class="cls-5" x="8.98" y=".25" width=".97" height=".97"/>
  <rect class="cls-3" x="8.01" y="31.28" width=".97" height=".97"/>
  <rect class="cls-3" x="8.01" y="30.31" width=".97" height=".97"/>
  <rect class="cls-3" x="8.01" y="29.34" width=".97" height=".97"/>
  <rect class="cls-3" x="8.01" y="28.37" width=".97" height=".97"/>
  <rect class="cls-3" x="8.01" y="27.4" width=".97" height=".97"/>
  <rect class="cls-3" x="8.01" y="26.43" width=".97" height=".97"/>
  <rect class="cls-3" x="8.01" y="25.46" width=".97" height=".97"/>
  <rect class="cls-3" x="8.01" y="24.49" width=".97" height=".97"/>
  <rect class="cls-3" x="8.01" y="23.52" width=".97" height=".97"/>
  <rect class="cls-3" x="8.01" y="22.55" width=".97" height=".97"/>
  <rect class="cls-5" x="8.01" y="21.58" width=".97" height=".97"/>
  <rect class="cls-4" x="8.01" y="20.61" width=".97" height=".97"/>
  <rect class="cls-4" x="8.01" y="19.64" width=".97" height=".97"/>
  <rect class="cls-5" x="8.01" y="18.67" width=".97" height=".97"/>
  <rect class="cls-9" x="8.01" y="17.71" width=".97" height=".97"/>
  <rect class="cls-9" x="8.01" y="16.74" width=".97" height=".97"/>
  <rect class="cls-9" x="8.01" y="15.77" width=".97" height=".97"/>
  <rect class="cls-12" x="8.01" y="14.79" width=".97" height=".97"/>
  <rect class="cls-12" x="8.01" y="13.82" width=".97" height=".97"/>
  <rect class="cls-6" x="8.01" y="12.86" width=".97" height=".97"/>
  <rect class="cls-9" x="8.01" y="11.89" width=".97" height=".97"/>
  <rect class="cls-9" x="8.01" y="10.92" width=".97" height=".97"/>
  <rect class="cls-9" x="8.01" y="9.95" width=".97" height=".97"/>
  <rect class="cls-10" x="8.01" y="8.98" width=".97" height=".97"/>
  <rect class="cls-10" x="8.01" y="8.01" width=".97" height=".97"/>
  <rect class="cls-10" x="8.01" y="7.04" width=".97" height=".97"/>
  <rect class="cls-10" x="8.01" y="6.07" width=".97" height=".97"/>
  <rect class="cls-9" x="8.01" y="5.1" width=".97" height=".97"/>
  <rect class="cls-5" x="8.01" y="4.13" width=".97" height=".97"/>
  <rect class="cls-4" x="8.01" y="3.16" width=".97" height=".97"/>
  <rect class="cls-4" x="8.01" y="2.19" width=".97" height=".97"/>
  <rect class="cls-5" x="8.01" y="1.22" width=".97" height=".97"/>
  <rect class="cls-3" x="7.04" y="31.28" width=".97" height=".97"/>
  <rect class="cls-3" x="7.04" y="30.31" width=".97" height=".97"/>
  <rect class="cls-3" x="7.04" y="29.34" width=".97" height=".97"/>
  <rect class="cls-3" x="7.04" y="28.37" width=".97" height=".97"/>
  <rect class="cls-3" x="7.04" y="27.4" width=".97" height=".97"/>
  <rect class="cls-3" x="7.04" y="26.43" width=".97" height=".97"/>
  <rect class="cls-3" x="7.04" y="25.46" width=".97" height=".97"/>
  <rect class="cls-3" x="7.04" y="24.49" width=".97" height=".97"/>
  <rect class="cls-3" x="7.04" y="23.52" width=".97" height=".97"/>
  <rect class="cls-3" x="7.04" y="22.55" width=".97" height=".97"/>
  <rect class="cls-5" x="7.04" y="21.58" width=".97" height=".97"/>
  <rect class="cls-1" x="7.04" y="20.61" width=".97" height=".97"/>
  <rect class="cls-4" x="7.04" y="19.64" width=".97" height=".97"/>
  <rect class="cls-4" x="7.04" y="18.67" width=".97" height=".97"/>
  <rect class="cls-5" x="7.04" y="17.71" width=".97" height=".97"/>
  <rect class="cls-9" x="7.04" y="16.74" width=".97" height=".97"/>
  <rect class="cls-9" x="7.04" y="15.77" width=".97" height=".97"/>
  <rect class="cls-6" x="7.04" y="14.79" width=".97" height=".97"/>
  <rect class="cls-6" x="7.04" y="13.82" width=".97" height=".97"/>
  <rect class="cls-9" x="7.04" y="12.86" width=".97" height=".97"/>
  <rect class="cls-9" x="7.04" y="11.89" width=".97" height=".97"/>
  <rect class="cls-9" x="7.04" y="10.92" width=".97" height=".97"/>
  <rect class="cls-9" x="7.04" y="9.95" width=".97" height=".97"/>
  <rect class="cls-9" x="7.04" y="8.98" width=".97" height=".97"/>
  <rect class="cls-10" x="7.04" y="8.01" width=".97" height=".97"/>
  <rect class="cls-10" x="7.04" y="7.04" width=".97" height=".97"/>
  <rect class="cls-9" x="7.04" y="6.07" width=".97" height=".97"/>
  <rect class="cls-5" x="7.04" y="5.1" width=".97" height=".97"/>
  <rect class="cls-4" x="7.04" y="4.13" width=".97" height=".97"/>
  <rect class="cls-4" x="7.04" y="3.16" width=".97" height=".97"/>
  <rect class="cls-4" x="7.04" y="2.19" width=".97" height=".97"/>
  <rect class="cls-5" x="7.04" y="1.22" width=".97" height=".97"/>
  <rect class="cls-5" x="6.07" y="20.61" width=".97" height=".97"/>
  <rect class="cls-4" x="6.07" y="19.64" width=".97" height=".97"/>
  <rect class="cls-4" x="6.07" y="18.67" width=".97" height=".97"/>
  <rect class="cls-4" x="6.07" y="17.71" width=".97" height=".97"/>
  <rect class="cls-5" x="6.07" y="16.74" width=".97" height=".97"/>
  <rect class="cls-9" x="6.07" y="15.77" width=".97" height=".97"/>
  <rect class="cls-9" x="6.07" y="14.79" width=".97" height=".97"/>
  <rect class="cls-9" x="6.07" y="13.82" width=".97" height=".97"/>
  <rect class="cls-9" x="6.07" y="12.86" width=".97" height=".97"/>
  <rect class="cls-9" x="6.07" y="11.89" width=".97" height=".97"/>
  <rect class="cls-9" x="6.07" y="10.92" width=".97" height=".97"/>
  <rect class="cls-9" x="6.07" y="9.95" width=".97" height=".97"/>
  <rect class="cls-9" x="6.07" y="8.98" width=".97" height=".97"/>
  <rect class="cls-9" x="6.07" y="8.01" width=".97" height=".97"/>
  <rect class="cls-9" x="6.07" y="7.04" width=".97" height=".97"/>
  <rect class="cls-5" x="6.07" y="6.07" width=".97" height=".97"/>
  <rect class="cls-4" x="6.07" y="5.1" width=".97" height=".97"/>
  <rect class="cls-4" x="6.07" y="4.13" width=".97" height=".97"/>
  <rect class="cls-4" x="6.07" y="3.16" width=".97" height=".97"/>
  <rect class="cls-5" x="6.07" y="2.19" width=".97" height=".97"/>
  <rect class="cls-5" x="5.1" y="20.61" width=".97" height=".97"/>
  <rect class="cls-1" x="5.1" y="19.64" width=".97" height=".97"/>
  <rect class="cls-4" x="5.1" y="18.67" width=".97" height=".97"/>
  <rect class="cls-4" x="5.1" y="17.71" width=".97" height=".97"/>
  <rect class="cls-4" x="5.1" y="16.74" width=".97" height=".97"/>
  <rect class="cls-5" x="5.1" y="15.77" width=".97" height=".97"/>
  <rect class="cls-9" x="5.1" y="14.79" width=".97" height=".97"/>
  <rect class="cls-9" x="5.1" y="13.82" width=".97" height=".97"/>
  <rect class="cls-9" x="5.1" y="12.86" width=".97" height=".97"/>
  <rect class="cls-9" x="5.1" y="11.89" width=".97" height=".97"/>
  <rect class="cls-9" x="5.1" y="10.92" width=".97" height=".97"/>
  <rect class="cls-9" x="5.1" y="9.95" width=".97" height=".97"/>
  <rect class="cls-9" x="5.1" y="8.98" width=".97" height=".97"/>
  <rect class="cls-9" x="5.1" y="8.01" width=".97" height=".97"/>
  <rect class="cls-5" x="5.1" y="7.04" width=".97" height=".97"/>
  <rect class="cls-4" x="5.1" y="6.07" width=".97" height=".97"/>
  <rect class="cls-4" x="5.1" y="5.1" width=".97" height=".97"/>
  <rect class="cls-4" x="5.1" y="4.13" width=".97" height=".97"/>
  <rect class="cls-4" x="5.1" y="3.16" width=".97" height=".97"/>
  <rect class="cls-5" x="5.1" y="2.19" width=".97" height=".97"/>
  <rect class="cls-5" x="4.13" y="19.64" width=".97" height=".97"/>
  <rect class="cls-1" x="4.13" y="18.67" width=".97" height=".97"/>
  <rect class="cls-4" x="4.13" y="17.71" width=".97" height=".97"/>
  <rect class="cls-4" x="4.13" y="16.74" width=".97" height=".97"/>
  <rect class="cls-4" x="4.13" y="15.77" width=".97" height=".97"/>
  <rect class="cls-5" x="4.13" y="14.79" width=".97" height=".97"/>
  <rect class="cls-5" x="4.13" y="13.82" width=".97" height=".97"/>
  <rect class="cls-9" x="4.13" y="12.86" width=".97" height=".97"/>
  <rect class="cls-9" x="4.13" y="11.89" width=".97" height=".97"/>
  <rect class="cls-9" x="4.13" y="10.92" width=".97" height=".97"/>
  <rect class="cls-9" x="4.13" y="9.95" width=".97" height=".97"/>
  <rect class="cls-5" x="4.13" y="8.98" width=".97" height=".97"/>
  <rect class="cls-5" x="4.13" y="8.01" width=".97" height=".97"/>
  <rect class="cls-4" x="4.13" y="7.04" width=".97" height=".97"/>
  <rect class="cls-4" x="4.13" y="6.07" width=".97" height=".97"/>
  <rect class="cls-4" x="4.13" y="5.1" width=".97" height=".97"/>
  <rect class="cls-4" x="4.13" y="4.13" width=".97" height=".97"/>
  <rect class="cls-5" x="4.13" y="3.16" width=".97" height=".97"/>
  <rect class="cls-5" x="3.16" y="18.67" width=".97" height=".97"/>
  <rect class="cls-1" x="3.16" y="17.71" width=".97" height=".97"/>
  <rect class="cls-4" x="3.16" y="16.74" width=".97" height=".97"/>
  <rect class="cls-4" x="3.16" y="15.77" width=".97" height=".97"/>
  <rect class="cls-4" x="3.16" y="14.79" width=".97" height=".97"/>
  <rect class="cls-4" x="3.16" y="13.82" width=".97" height=".97"/>
  <rect class="cls-5" x="3.16" y="12.86" width=".97" height=".97"/>
  <rect class="cls-5" x="3.16" y="11.89" width=".97" height=".97"/>
  <rect class="cls-5" x="3.16" y="10.92" width=".97" height=".97"/>
  <rect class="cls-5" x="3.16" y="9.95" width=".97" height=".97"/>
  <rect class="cls-4" x="3.16" y="8.98" width=".97" height=".97"/>
  <rect class="cls-4" x="3.16" y="8.01" width=".97" height=".97"/>
  <rect class="cls-4" x="3.16" y="7.04" width=".97" height=".97"/>
  <rect class="cls-4" x="3.16" y="6.07" width=".97" height=".97"/>
  <rect class="cls-4" x="3.16" y="5.1" width=".97" height=".97"/>
  <rect class="cls-5" x="3.16" y="4.13" width=".97" height=".97"/>
  <rect class="cls-5" x="2.19" y="17.71" width=".97" height=".97"/>
  <rect class="cls-5" x="2.19" y="16.74" width=".97" height=".97"/>
  <rect class="cls-1" x="2.19" y="15.77" width=".97" height=".97"/>
  <rect class="cls-4" x="2.19" y="14.79" width=".97" height=".97"/>
  <rect class="cls-4" x="2.19" y="13.82" width=".97" height=".97"/>
  <rect class="cls-4" x="2.19" y="12.86" width=".97" height=".97"/>
  <rect class="cls-4" x="2.19" y="11.89" width=".97" height=".97"/>
  <rect class="cls-4" x="2.19" y="10.92" width=".97" height=".97"/>
  <rect class="cls-4" x="2.19" y="9.95" width=".97" height=".97"/>
  <rect class="cls-4" x="2.19" y="8.98" width=".97" height=".97"/>
  <rect class="cls-4" x="2.19" y="8.01" width=".97" height=".97"/>
  <rect class="cls-4" x="2.19" y="7.04" width=".97" height=".97"/>
  <rect class="cls-5" x="2.19" y="6.07" width=".97" height=".97"/>
  <rect class="cls-5" x="2.19" y="5.1" width=".97" height=".97"/>
  <rect class="cls-5" x="1.22" y="15.77" width=".97" height=".97"/>
  <rect class="cls-5" x="1.22" y="14.79" width=".97" height=".97"/>
  <rect class="cls-4" x="1.22" y="13.82" width=".97" height=".97"/>
  <rect class="cls-4" x="1.22" y="12.86" width=".97" height=".97"/>
  <rect class="cls-4" x="1.22" y="11.89" width=".97" height=".97"/>
  <rect class="cls-4" x="1.22" y="10.92" width=".97" height=".97"/>
  <rect class="cls-4" x="1.22" y="9.95" width=".97" height=".97"/>
  <rect class="cls-4" x="1.22" y="8.98" width=".97" height=".97"/>
  <rect class="cls-5" x="1.22" y="8.01" width=".97" height=".97"/>
  <rect class="cls-5" x="1.22" y="7.04" width=".97" height=".97"/>
  <rect class="cls-5" x=".25" y="13.82" width=".97" height=".97"/>
  <rect class="cls-5" x=".25" y="12.86" width=".97" height=".97"/>
  <rect class="cls-5" x=".25" y="11.89" width=".97" height=".97"/>
  <rect class="cls-5" x=".25" y="10.92" width=".97" height=".97"/>
  <rect class="cls-5" x=".25" y="9.95" width=".97" height=".97"/>
  <rect class="cls-5" x=".25" y="8.98" width=".97" height=".97"/>
</svg>