<?xml version="1.0" encoding="UTF-8"?>
<svg id="Capa_1" data-name="Capa 1" xmlns="http://www.w3.org/2000/svg" viewBox="0 0 12.62 16.5">
  <defs>
    <style>
      .cls-1 {
        fill: #c88826;
      }

      .cls-2 {
        fill: #e3c249;
      }

      .cls-3 {
        fill: #75aadb;
      }

      .cls-4 {
        fill: #d8a223;
      }

      .cls-5 {
        fill: #894528;
      }

      .cls-6 {
        fill: #9f5323;
      }

      .cls-7 {
        fill: #fff;
      }

      .cls-8 {
        fill: #d9a221;
      }

      .cls-9 {
        fill: #b66c23;
      }

      .cls-10 {
        fill: #cc892a;
      }

      .cls-11 {
        fill: #da9923;
      }

      .cls-12 {
        fill: #195942;
      }
    </style>
  </defs>
  <rect class="cls-5" x="11.89" y="7.04" width=".49" height=".49"/>
  <rect class="cls-5" x="11.89" y="6.55" width=".49" height=".49"/>
  <rect class="cls-5" x="11.89" y="6.07" width=".49" height=".49"/>
  <rect class="cls-5" x="11.89" y="5.58" width=".49" height=".49"/>
  <rect class="cls-5" x="11.89" y="5.1" width=".49" height=".48"/>
  <rect class="cls-5" x="11.89" y="4.61" width=".49" height=".49"/>
  <rect class="cls-5" x="11.4" y="8.01" width=".49" height=".49"/>
  <rect class="cls-5" x="11.4" y="7.52" width=".49" height=".48"/>
  <rect class="cls-8" x="11.4" y="7.04" width=".49" height=".49"/>
  <rect class="cls-2" x="11.4" y="6.55" width=".49" height=".49"/>
  <rect class="cls-2" x="11.4" y="6.07" width=".49" height=".49"/>
  <rect class="cls-2" x="11.4" y="5.58" width=".49" height=".49"/>
  <rect class="cls-2" x="11.4" y="5.1" width=".49" height=".48"/>
  <rect class="cls-8" x="11.4" y="4.61" width=".49" height=".49"/>
  <rect class="cls-5" x="11.4" y="4.13" width=".49" height=".49"/>
  <rect class="cls-5" x="11.4" y="3.64" width=".49" height=".49"/>
  <rect class="cls-5" x="10.92" y="8.98" width=".48" height=".49"/>
  <rect class="cls-5" x="10.92" y="8.49" width=".48" height=".49"/>
  <rect class="cls-8" x="10.92" y="8.01" width=".48" height=".49"/>
  <rect class="cls-2" x="10.92" y="7.52" width=".48" height=".48"/>
  <rect class="cls-2" x="10.92" y="7.04" width=".48" height=".49"/>
  <rect class="cls-2" x="10.92" y="6.55" width=".48" height=".49"/>
  <rect class="cls-2" x="10.92" y="6.07" width=".48" height=".49"/>
  <rect class="cls-2" x="10.92" y="5.58" width=".48" height=".49"/>
  <rect class="cls-2" x="10.92" y="5.1" width=".48" height=".48"/>
  <rect class="cls-2" x="10.92" y="4.61" width=".48" height=".49"/>
  <rect class="cls-2" x="10.92" y="4.13" width=".48" height=".49"/>
  <rect class="cls-8" x="10.92" y="3.64" width=".48" height=".49"/>
  <rect class="cls-5" x="10.92" y="3.16" width=".48" height=".49"/>
  <rect class="cls-5" x="10.92" y="2.67" width=".48" height=".48"/>
  <rect class="cls-5" x="10.43" y="9.46" width=".49" height=".49"/>
  <rect class="cls-8" x="10.43" y="8.98" width=".49" height=".49"/>
  <rect class="cls-2" x="10.43" y="8.49" width=".49" height=".49"/>
  <rect class="cls-2" x="10.43" y="8.01" width=".49" height=".49"/>
  <rect class="cls-2" x="10.43" y="7.52" width=".49" height=".48"/>
  <rect class="cls-2" x="10.43" y="7.04" width=".49" height=".49"/>
  <rect class="cls-5" x="10.43" y="6.55" width=".49" height=".49"/>
  <rect class="cls-5" x="10.43" y="6.07" width=".49" height=".49"/>
  <rect class="cls-5" x="10.43" y="5.58" width=".49" height=".49"/>
  <rect class="cls-5" x="10.43" y="5.1" width=".49" height=".48"/>
  <rect class="cls-2" x="10.43" y="4.61" width=".49" height=".49"/>
  <rect class="cls-2" x="10.43" y="4.13" width=".49" height=".49"/>
  <rect class="cls-2" x="10.43" y="3.64" width=".49" height=".49"/>
  <rect class="cls-2" x="10.43" y="3.16" width=".49" height=".49"/>
  <rect class="cls-8" x="10.43" y="2.67" width=".49" height=".48"/>
  <rect class="cls-5" x="10.43" y="2.19" width=".49" height=".49"/>
  <rect class="cls-5" x="9.95" y="9.95" width=".49" height=".48"/>
  <rect class="cls-8" x="9.95" y="9.46" width=".49" height=".49"/>
  <rect class="cls-2" x="9.95" y="8.98" width=".49" height=".49"/>
  <rect class="cls-2" x="9.95" y="8.49" width=".49" height=".49"/>
  <rect class="cls-2" x="9.95" y="8.01" width=".49" height=".49"/>
  <rect class="cls-5" x="9.95" y="7.52" width=".49" height=".48"/>
  <rect class="cls-5" x="9.95" y="7.04" width=".49" height=".49"/>
  <rect class="cls-10" x="9.95" y="6.55" width=".49" height=".49"/>
  <rect class="cls-11" x="9.95" y="6.07" width=".49" height=".49"/>
  <rect class="cls-11" x="9.95" y="5.58" width=".49" height=".49"/>
  <rect class="cls-11" x="9.95" y="5.1" width=".49" height=".48"/>
  <rect class="cls-5" x="9.95" y="4.61" width=".49" height=".49"/>
  <rect class="cls-5" x="9.95" y="4.13" width=".49" height=".49"/>
  <rect class="cls-2" x="9.95" y="3.64" width=".49" height=".49"/>
  <rect class="cls-2" x="9.95" y="3.16" width=".49" height=".49"/>
  <rect class="cls-2" x="9.95" y="2.67" width=".49" height=".48"/>
  <rect class="cls-8" x="9.95" y="2.19" width=".49" height=".49"/>
  <rect class="cls-5" x="9.95" y="1.7" width=".49" height=".49"/>
  <rect class="cls-5" x="9.46" y="10.43" width=".49" height=".49"/>
  <rect class="cls-8" x="9.46" y="9.95" width=".49" height=".48"/>
  <rect class="cls-2" x="9.46" y="9.46" width=".49" height=".49"/>
  <rect class="cls-2" x="9.46" y="8.98" width=".49" height=".49"/>
  <rect class="cls-2" x="9.46" y="8.49" width=".49" height=".49"/>
  <rect class="cls-5" x="9.46" y="8.01" width=".49" height=".49"/>
  <rect class="cls-10" x="9.46" y="7.52" width=".49" height=".48"/>
  <rect class="cls-11" x="9.46" y="7.04" width=".49" height=".49"/>
  <rect class="cls-11" x="9.46" y="6.55" width=".49" height=".49"/>
  <rect class="cls-11" x="9.46" y="6.07" width=".49" height=".49"/>
  <rect class="cls-11" x="9.46" y="5.58" width=".49" height=".49"/>
  <rect class="cls-11" x="9.46" y="5.1" width=".49" height=".48"/>
  <rect class="cls-11" x="9.46" y="4.61" width=".49" height=".49"/>
  <rect class="cls-10" x="9.46" y="4.13" width=".49" height=".49"/>
  <rect class="cls-5" x="9.46" y="3.64" width=".49" height=".49"/>
  <rect class="cls-2" x="9.46" y="3.16" width=".49" height=".49"/>
  <rect class="cls-2" x="9.46" y="2.67" width=".49" height=".48"/>
  <rect class="cls-2" x="9.46" y="2.19" width=".49" height=".49"/>
  <rect class="cls-8" x="9.46" y="1.7" width=".49" height=".49"/>
  <rect class="cls-5" x="9.46" y="1.22" width=".49" height=".49"/>
  <rect class="cls-5" x="8.98" y="10.43" width=".49" height=".49"/>
  <rect class="cls-2" x="8.98" y="9.95" width=".49" height=".48"/>
  <rect class="cls-2" x="8.98" y="9.46" width=".49" height=".49"/>
  <rect class="cls-2" x="8.98" y="8.98" width=".49" height=".49"/>
  <rect class="cls-5" x="8.98" y="8.49" width=".49" height=".49"/>
  <rect class="cls-10" x="8.98" y="8.01" width=".49" height=".49"/>
  <rect class="cls-11" x="8.98" y="7.52" width=".49" height=".48"/>
  <rect class="cls-11" x="8.98" y="7.04" width=".49" height=".49"/>
  <rect class="cls-11" x="8.98" y="6.55" width=".49" height=".49"/>
  <rect class="cls-11" x="8.98" y="6.07" width=".49" height=".49"/>
  <rect class="cls-11" x="8.98" y="5.58" width=".49" height=".49"/>
  <rect class="cls-11" x="8.98" y="5.1" width=".49" height=".48"/>
  <rect class="cls-11" x="8.98" y="4.61" width=".49" height=".49"/>
  <rect class="cls-11" x="8.98" y="4.13" width=".49" height=".49"/>
  <rect class="cls-10" x="8.98" y="3.64" width=".49" height=".49"/>
  <rect class="cls-5" x="8.98" y="3.16" width=".49" height=".49"/>
  <rect class="cls-2" x="8.98" y="2.67" width=".49" height=".48"/>
  <rect class="cls-2" x="8.98" y="2.19" width=".49" height=".49"/>
  <rect class="cls-2" x="8.98" y="1.7" width=".49" height=".49"/>
  <rect class="cls-5" x="8.98" y="1.22" width=".49" height=".49"/>
  <rect class="cls-3" x="8.49" y="15.77" width=".48" height=".49"/>
  <rect class="cls-3" x="8.49" y="15.28" width=".48" height=".48"/>
  <rect class="cls-3" x="8.49" y="14.8" width=".48" height=".48"/>
  <rect class="cls-3" x="8.49" y="14.31" width=".48" height=".49"/>
  <rect class="cls-3" x="8.49" y="13.83" width=".48" height=".49"/>
  <rect class="cls-3" x="8.49" y="13.34" width=".48" height=".49"/>
  <rect class="cls-3" x="8.49" y="12.86" width=".48" height=".49"/>
  <rect class="cls-3" x="8.49" y="12.37" width=".48" height=".48"/>
  <rect class="cls-3" x="8.49" y="11.89" width=".48" height=".49"/>
  <rect class="cls-3" x="8.49" y="11.4" width=".48" height=".49"/>
  <rect class="cls-5" x="8.49" y="10.92" width=".48" height=".49"/>
  <rect class="cls-8" x="8.49" y="10.43" width=".48" height=".49"/>
  <rect class="cls-2" x="8.49" y="9.95" width=".48" height=".48"/>
  <rect class="cls-2" x="8.49" y="9.46" width=".48" height=".49"/>
  <rect class="cls-5" x="8.49" y="8.98" width=".48" height=".49"/>
  <rect class="cls-10" x="8.49" y="8.49" width=".48" height=".49"/>
  <rect class="cls-11" x="8.49" y="8.01" width=".48" height=".49"/>
  <rect class="cls-11" x="8.49" y="7.52" width=".48" height=".48"/>
  <rect class="cls-11" x="8.49" y="7.04" width=".48" height=".49"/>
  <rect class="cls-11" x="8.49" y="6.55" width=".48" height=".49"/>
  <rect class="cls-11" x="8.49" y="6.07" width=".48" height=".49"/>
  <rect class="cls-11" x="8.49" y="5.58" width=".48" height=".49"/>
  <rect class="cls-11" x="8.49" y="5.1" width=".48" height=".48"/>
  <rect class="cls-11" x="8.49" y="4.61" width=".48" height=".49"/>
  <rect class="cls-11" x="8.49" y="4.13" width=".48" height=".49"/>
  <rect class="cls-11" x="8.49" y="3.64" width=".48" height=".49"/>
  <rect class="cls-10" x="8.49" y="3.16" width=".48" height=".49"/>
  <rect class="cls-5" x="8.49" y="2.67" width=".48" height=".48"/>
  <rect class="cls-2" x="8.49" y="2.19" width=".48" height=".49"/>
  <rect class="cls-2" x="8.49" y="1.7" width=".48" height=".49"/>
  <rect class="cls-8" x="8.49" y="1.22" width=".48" height=".49"/>
  <rect class="cls-5" x="8.49" y=".74" width=".48" height=".48"/>
  <rect class="cls-3" x="8.01" y="15.77" width=".49" height=".49"/>
  <rect class="cls-3" x="8.01" y="15.28" width=".49" height=".48"/>
  <rect class="cls-3" x="8.01" y="14.8" width=".49" height=".48"/>
  <rect class="cls-3" x="8.01" y="14.31" width=".49" height=".49"/>
  <rect class="cls-3" x="8.01" y="13.83" width=".49" height=".49"/>
  <rect class="cls-3" x="8.01" y="13.34" width=".49" height=".49"/>
  <rect class="cls-3" x="8.01" y="12.86" width=".49" height=".49"/>
  <rect class="cls-3" x="8.01" y="12.37" width=".49" height=".48"/>
  <rect class="cls-3" x="8.01" y="11.89" width=".49" height=".49"/>
  <rect class="cls-3" x="8.01" y="11.4" width=".49" height=".49"/>
  <rect class="cls-5" x="8.01" y="10.92" width=".49" height=".49"/>
  <rect class="cls-2" x="8.01" y="10.43" width=".49" height=".49"/>
  <rect class="cls-2" x="8.01" y="9.95" width=".49" height=".48"/>
  <rect class="cls-5" x="8.01" y="9.46" width=".49" height=".49"/>
  <rect class="cls-10" x="8.01" y="8.98" width=".49" height=".49"/>
  <rect class="cls-11" x="8.01" y="8.49" width=".49" height=".49"/>
  <rect class="cls-11" x="8.01" y="8.01" width=".49" height=".49"/>
  <rect class="cls-12" x="8.01" y="7.52" width=".49" height=".48"/>
  <rect class="cls-12" x="8.01" y="7.04" width=".49" height=".49"/>
  <rect class="cls-11" x="8.01" y="6.55" width=".49" height=".49"/>
  <rect class="cls-11" x="8.01" y="6.07" width=".49" height=".49"/>
  <rect class="cls-11" x="8.01" y="5.58" width=".49" height=".49"/>
  <rect class="cls-11" x="8.01" y="5.1" width=".49" height=".48"/>
  <rect class="cls-11" x="8.01" y="4.61" width=".49" height=".49"/>
  <rect class="cls-11" x="8.01" y="4.13" width=".49" height=".49"/>
  <rect class="cls-11" x="8.01" y="3.64" width=".49" height=".49"/>
  <rect class="cls-11" x="8.01" y="3.16" width=".49" height=".49"/>
  <rect class="cls-10" x="8.01" y="2.67" width=".49" height=".48"/>
  <rect class="cls-5" x="8.01" y="2.19" width=".49" height=".49"/>
  <rect class="cls-2" x="8.01" y="1.7" width=".49" height=".49"/>
  <rect class="cls-2" x="8.01" y="1.22" width=".49" height=".49"/>
  <rect class="cls-5" x="8.01" y=".74" width=".49" height=".48"/>
  <rect class="cls-3" x="7.52" y="15.28" width=".49" height=".48"/>
  <rect class="cls-3" x="7.52" y="14.8" width=".49" height=".48"/>
  <rect class="cls-3" x="7.52" y="14.31" width=".49" height=".49"/>
  <rect class="cls-3" x="7.52" y="13.83" width=".49" height=".49"/>
  <rect class="cls-3" x="7.52" y="13.34" width=".49" height=".49"/>
  <rect class="cls-3" x="7.52" y="12.86" width=".49" height=".49"/>
  <rect class="cls-3" x="7.52" y="12.37" width=".49" height=".48"/>
  <rect class="cls-3" x="7.52" y="11.89" width=".49" height=".49"/>
  <rect class="cls-5" x="7.52" y="11.4" width=".49" height=".49"/>
  <rect class="cls-4" x="7.52" y="10.92" width=".49" height=".49"/>
  <rect class="cls-2" x="7.52" y="10.43" width=".49" height=".49"/>
  <rect class="cls-2" x="7.52" y="9.95" width=".49" height=".48"/>
  <rect class="cls-5" x="7.52" y="9.46" width=".49" height=".49"/>
  <rect class="cls-11" x="7.52" y="8.98" width=".49" height=".49"/>
  <rect class="cls-11" x="7.52" y="8.49" width=".49" height=".49"/>
  <rect class="cls-11" x="7.52" y="8.01" width=".49" height=".49"/>
  <rect class="cls-12" x="7.52" y="7.52" width=".49" height=".48"/>
  <rect class="cls-12" x="7.52" y="7.04" width=".49" height=".49"/>
  <rect class="cls-12" x="7.52" y="6.55" width=".49" height=".49"/>
  <rect class="cls-11" x="7.52" y="6.07" width=".49" height=".49"/>
  <rect class="cls-11" x="7.52" y="5.58" width=".49" height=".49"/>
  <rect class="cls-11" x="7.52" y="5.1" width=".49" height=".48"/>
  <rect class="cls-11" x="7.52" y="4.61" width=".49" height=".49"/>
  <rect class="cls-11" x="7.52" y="4.13" width=".49" height=".49"/>
  <rect class="cls-11" x="7.52" y="3.64" width=".49" height=".49"/>
  <rect class="cls-11" x="7.52" y="3.16" width=".49" height=".49"/>
  <rect class="cls-11" x="7.52" y="2.67" width=".49" height=".48"/>
  <rect class="cls-5" x="7.52" y="2.19" width=".49" height=".49"/>
  <rect class="cls-2" x="7.52" y="1.7" width=".49" height=".49"/>
  <rect class="cls-2" x="7.52" y="1.22" width=".49" height=".49"/>
  <rect class="cls-8" x="7.52" y=".74" width=".49" height=".48"/>
  <rect class="cls-5" x="7.52" y=".25" width=".49" height=".49"/>
  <rect class="cls-3" x="7.04" y="14.8" width=".49" height=".48"/>
  <rect class="cls-3" x="7.04" y="14.31" width=".49" height=".49"/>
  <rect class="cls-3" x="7.04" y="13.83" width=".49" height=".49"/>
  <rect class="cls-3" x="7.04" y="13.34" width=".49" height=".49"/>
  <rect class="cls-3" x="7.04" y="12.86" width=".49" height=".49"/>
  <rect class="cls-3" x="7.04" y="12.37" width=".49" height=".48"/>
  <rect class="cls-3" x="7.04" y="11.89" width=".49" height=".49"/>
  <rect class="cls-5" x="7.04" y="11.4" width=".49" height=".49"/>
  <rect class="cls-4" x="7.04" y="10.92" width=".49" height=".49"/>
  <rect class="cls-2" x="7.04" y="10.43" width=".49" height=".49"/>
  <rect class="cls-5" x="7.04" y="9.95" width=".49" height=".48"/>
  <rect class="cls-10" x="7.04" y="9.46" width=".49" height=".49"/>
  <rect class="cls-11" x="7.04" y="8.98" width=".49" height=".49"/>
  <rect class="cls-11" x="7.04" y="8.49" width=".49" height=".49"/>
  <rect class="cls-11" x="7.04" y="8.01" width=".49" height=".49"/>
  <rect class="cls-12" x="7.04" y="7.52" width=".49" height=".48"/>
  <rect class="cls-12" x="7.04" y="7.04" width=".49" height=".49"/>
  <rect class="cls-12" x="7.04" y="6.55" width=".49" height=".49"/>
  <rect class="cls-12" x="7.04" y="6.07" width=".49" height=".49"/>
  <rect class="cls-11" x="7.04" y="5.58" width=".49" height=".49"/>
  <rect class="cls-11" x="7.04" y="5.1" width=".49" height=".48"/>
  <rect class="cls-12" x="7.04" y="4.61" width=".49" height=".49"/>
  <rect class="cls-12" x="7.04" y="4.13" width=".49" height=".49"/>
  <rect class="cls-11" x="7.04" y="3.64" width=".49" height=".49"/>
  <rect class="cls-11" x="7.04" y="3.16" width=".49" height=".49"/>
  <rect class="cls-11" x="7.04" y="2.67" width=".49" height=".48"/>
  <rect class="cls-10" x="7.04" y="2.19" width=".49" height=".49"/>
  <rect class="cls-5" x="7.04" y="1.7" width=".49" height=".49"/>
  <rect class="cls-2" x="7.04" y="1.22" width=".49" height=".49"/>
  <rect class="cls-2" x="7.04" y=".74" width=".49" height=".48"/>
  <rect class="cls-5" x="7.04" y=".25" width=".49" height=".49"/>
  <rect class="cls-7" x="6.55" y="14.31" width=".49" height=".49"/>
  <rect class="cls-7" x="6.55" y="13.83" width=".49" height=".49"/>
  <rect class="cls-7" x="6.55" y="13.34" width=".49" height=".49"/>
  <rect class="cls-7" x="6.55" y="12.86" width=".49" height=".49"/>
  <rect class="cls-7" x="6.55" y="12.37" width=".49" height=".48"/>
  <rect class="cls-7" x="6.55" y="11.89" width=".49" height=".49"/>
  <rect class="cls-5" x="6.55" y="11.4" width=".49" height=".49"/>
  <rect class="cls-4" x="6.55" y="10.92" width=".49" height=".49"/>
  <rect class="cls-2" x="6.55" y="10.43" width=".49" height=".49"/>
  <rect class="cls-5" x="6.55" y="9.95" width=".49" height=".48"/>
  <rect class="cls-10" x="6.55" y="9.46" width=".49" height=".49"/>
  <rect class="cls-11" x="6.55" y="8.98" width=".49" height=".49"/>
  <rect class="cls-11" x="6.55" y="8.49" width=".49" height=".49"/>
  <rect class="cls-11" x="6.55" y="8.01" width=".49" height=".49"/>
  <rect class="cls-12" x="6.55" y="7.52" width=".49" height=".48"/>
  <rect class="cls-12" x="6.55" y="7.04" width=".49" height=".49"/>
  <rect class="cls-12" x="6.55" y="6.55" width=".49" height=".49"/>
  <rect class="cls-12" x="6.55" y="6.07" width=".49" height=".49"/>
  <rect class="cls-11" x="6.55" y="5.58" width=".49" height=".49"/>
  <rect class="cls-12" x="6.55" y="5.1" width=".49" height=".48"/>
  <rect class="cls-12" x="6.55" y="4.61" width=".49" height=".49"/>
  <rect class="cls-12" x="6.55" y="4.13" width=".49" height=".49"/>
  <rect class="cls-12" x="6.55" y="3.64" width=".49" height=".49"/>
  <rect class="cls-11" x="6.55" y="3.16" width=".49" height=".49"/>
  <rect class="cls-11" x="6.55" y="2.67" width=".49" height=".48"/>
  <rect class="cls-10" x="6.55" y="2.19" width=".49" height=".49"/>
  <rect class="cls-5" x="6.55" y="1.7" width=".49" height=".49"/>
  <rect class="cls-2" x="6.55" y="1.22" width=".49" height=".49"/>
  <rect class="cls-2" x="6.55" y=".74" width=".49" height=".48"/>
  <rect class="cls-5" x="6.55" y=".25" width=".49" height=".49"/>
  <rect class="cls-7" x="6.07" y="14.31" width=".48" height=".49"/>
  <rect class="cls-7" x="6.07" y="13.83" width=".48" height=".49"/>
  <rect class="cls-7" x="6.07" y="13.34" width=".48" height=".49"/>
  <rect class="cls-7" x="6.07" y="12.86" width=".48" height=".49"/>
  <rect class="cls-7" x="6.07" y="12.37" width=".48" height=".48"/>
  <rect class="cls-7" x="6.07" y="11.89" width=".48" height=".49"/>
  <rect class="cls-5" x="6.07" y="11.4" width=".48" height=".49"/>
  <rect class="cls-4" x="6.07" y="10.92" width=".48" height=".49"/>
  <rect class="cls-2" x="6.07" y="10.43" width=".48" height=".49"/>
  <rect class="cls-5" x="6.07" y="9.95" width=".48" height=".48"/>
  <rect class="cls-10" x="6.07" y="9.46" width=".48" height=".49"/>
  <rect class="cls-10" x="6.07" y="8.98" width=".48" height=".49"/>
  <rect class="cls-10" x="6.07" y="8.49" width=".48" height=".49"/>
  <rect class="cls-10" x="6.07" y="8.01" width=".48" height=".49"/>
  <rect class="cls-12" x="6.07" y="7.52" width=".48" height=".48"/>
  <rect class="cls-12" x="6.07" y="7.04" width=".48" height=".49"/>
  <rect class="cls-12" x="6.07" y="6.55" width=".48" height=".49"/>
  <rect class="cls-12" x="6.07" y="6.07" width=".48" height=".49"/>
  <rect class="cls-6" x="6.07" y="5.58" width=".48" height=".49"/>
  <rect class="cls-12" x="6.07" y="5.1" width=".48" height=".48"/>
  <rect class="cls-12" x="6.07" y="4.61" width=".48" height=".49"/>
  <rect class="cls-12" x="6.07" y="4.13" width=".48" height=".49"/>
  <rect class="cls-12" x="6.07" y="3.64" width=".48" height=".49"/>
  <rect class="cls-10" x="6.07" y="3.16" width=".48" height=".49"/>
  <rect class="cls-10" x="6.07" y="2.67" width=".48" height=".48"/>
  <rect class="cls-10" x="6.07" y="2.19" width=".48" height=".49"/>
  <rect class="cls-5" x="6.07" y="1.7" width=".48" height=".49"/>
  <rect class="cls-2" x="6.07" y="1.22" width=".48" height=".49"/>
  <rect class="cls-2" x="6.07" y=".74" width=".48" height=".48"/>
  <rect class="cls-5" x="6.07" y=".25" width=".48" height=".49"/>
  <rect class="cls-7" x="5.58" y="14.31" width=".49" height=".49"/>
  <rect class="cls-7" x="5.58" y="13.83" width=".49" height=".49"/>
  <rect class="cls-7" x="5.58" y="13.34" width=".49" height=".49"/>
  <rect class="cls-7" x="5.58" y="12.86" width=".49" height=".49"/>
  <rect class="cls-7" x="5.58" y="12.37" width=".49" height=".48"/>
  <rect class="cls-7" x="5.58" y="11.89" width=".49" height=".49"/>
  <rect class="cls-5" x="5.58" y="11.4" width=".49" height=".49"/>
  <rect class="cls-4" x="5.58" y="10.92" width=".49" height=".49"/>
  <rect class="cls-4" x="5.58" y="10.43" width=".49" height=".49"/>
  <rect class="cls-5" x="5.58" y="9.95" width=".49" height=".48"/>
  <rect class="cls-10" x="5.58" y="9.46" width=".49" height=".49"/>
  <rect class="cls-10" x="5.58" y="8.98" width=".49" height=".49"/>
  <rect class="cls-10" x="5.58" y="8.49" width=".49" height=".49"/>
  <rect class="cls-10" x="5.58" y="8.01" width=".49" height=".49"/>
  <rect class="cls-12" x="5.58" y="7.52" width=".49" height=".48"/>
  <rect class="cls-12" x="5.58" y="7.04" width=".49" height=".49"/>
  <rect class="cls-12" x="5.58" y="6.55" width=".49" height=".49"/>
  <rect class="cls-12" x="5.58" y="6.07" width=".49" height=".49"/>
  <rect class="cls-6" x="5.58" y="5.58" width=".49" height=".49"/>
  <rect class="cls-12" x="5.58" y="5.1" width=".49" height=".48"/>
  <rect class="cls-12" x="5.58" y="4.61" width=".49" height=".49"/>
  <rect class="cls-12" x="5.58" y="4.13" width=".49" height=".49"/>
  <rect class="cls-12" x="5.58" y="3.64" width=".49" height=".49"/>
  <rect class="cls-10" x="5.58" y="3.16" width=".49" height=".49"/>
  <rect class="cls-10" x="5.58" y="2.67" width=".49" height=".48"/>
  <rect class="cls-10" x="5.58" y="2.19" width=".49" height=".49"/>
  <rect class="cls-5" x="5.58" y="1.7" width=".49" height=".49"/>
  <rect class="cls-2" x="5.58" y="1.22" width=".49" height=".49"/>
  <rect class="cls-2" x="5.58" y=".74" width=".49" height=".48"/>
  <rect class="cls-5" x="5.58" y=".25" width=".49" height=".49"/>
  <rect class="cls-3" x="5.1" y="14.8" width=".49" height=".48"/>
  <rect class="cls-3" x="5.1" y="14.31" width=".49" height=".49"/>
  <rect class="cls-3" x="5.1" y="13.83" width=".49" height=".49"/>
  <rect class="cls-3" x="5.1" y="13.34" width=".49" height=".49"/>
  <rect class="cls-3" x="5.1" y="12.86" width=".49" height=".49"/>
  <rect class="cls-3" x="5.1" y="12.37" width=".49" height=".48"/>
  <rect class="cls-3" x="5.1" y="11.89" width=".49" height=".49"/>
  <rect class="cls-5" x="5.1" y="11.4" width=".49" height=".49"/>
  <rect class="cls-4" x="5.1" y="10.92" width=".49" height=".49"/>
  <rect class="cls-4" x="5.1" y="10.43" width=".49" height=".49"/>
  <rect class="cls-5" x="5.1" y="9.95" width=".49" height=".48"/>
  <rect class="cls-9" x="5.1" y="9.46" width=".49" height=".49"/>
  <rect class="cls-10" x="5.1" y="8.98" width=".49" height=".49"/>
  <rect class="cls-10" x="5.1" y="8.49" width=".49" height=".49"/>
  <rect class="cls-10" x="5.1" y="8.01" width=".49" height=".49"/>
  <rect class="cls-12" x="5.1" y="7.52" width=".49" height=".48"/>
  <rect class="cls-12" x="5.1" y="7.04" width=".49" height=".49"/>
  <rect class="cls-12" x="5.1" y="6.55" width=".49" height=".49"/>
  <rect class="cls-12" x="5.1" y="6.07" width=".49" height=".49"/>
  <rect class="cls-6" x="5.1" y="5.58" width=".49" height=".49"/>
  <rect class="cls-6" x="5.1" y="5.1" width=".49" height=".48"/>
  <rect class="cls-12" x="5.1" y="4.61" width=".49" height=".49"/>
  <rect class="cls-12" x="5.1" y="4.13" width=".49" height=".49"/>
  <rect class="cls-6" x="5.1" y="3.64" width=".49" height=".49"/>
  <rect class="cls-10" x="5.1" y="3.16" width=".49" height=".49"/>
  <rect class="cls-10" x="5.1" y="2.67" width=".49" height=".48"/>
  <rect class="cls-10" x="5.1" y="2.19" width=".49" height=".49"/>
  <rect class="cls-5" x="5.1" y="1.7" width=".49" height=".49"/>
  <rect class="cls-2" x="5.1" y="1.22" width=".49" height=".49"/>
  <rect class="cls-2" x="5.1" y=".74" width=".49" height=".48"/>
  <rect class="cls-5" x="5.1" y=".25" width=".49" height=".49"/>
  <rect class="cls-3" x="4.61" y="15.28" width=".49" height=".48"/>
  <rect class="cls-3" x="4.61" y="14.8" width=".49" height=".48"/>
  <rect class="cls-3" x="4.61" y="14.31" width=".49" height=".49"/>
  <rect class="cls-3" x="4.61" y="13.83" width=".49" height=".49"/>
  <rect class="cls-3" x="4.61" y="13.34" width=".49" height=".49"/>
  <rect class="cls-3" x="4.61" y="12.86" width=".49" height=".49"/>
  <rect class="cls-3" x="4.61" y="12.37" width=".49" height=".48"/>
  <rect class="cls-3" x="4.61" y="11.89" width=".49" height=".49"/>
  <rect class="cls-5" x="4.61" y="11.4" width=".49" height=".49"/>
  <rect class="cls-8" x="4.61" y="10.92" width=".49" height=".49"/>
  <rect class="cls-4" x="4.61" y="10.43" width=".49" height=".49"/>
  <rect class="cls-4" x="4.61" y="9.95" width=".49" height=".48"/>
  <rect class="cls-5" x="4.61" y="9.46" width=".49" height=".49"/>
  <rect class="cls-9" x="4.61" y="8.98" width=".49" height=".49"/>
  <rect class="cls-10" x="4.61" y="8.49" width=".49" height=".49"/>
  <rect class="cls-10" x="4.61" y="8.01" width=".49" height=".49"/>
  <rect class="cls-12" x="4.61" y="7.52" width=".49" height=".48"/>
  <rect class="cls-12" x="4.61" y="7.04" width=".49" height=".49"/>
  <rect class="cls-12" x="4.61" y="6.55" width=".49" height=".49"/>
  <rect class="cls-6" x="4.61" y="6.07" width=".49" height=".49"/>
  <rect class="cls-6" x="4.61" y="5.58" width=".49" height=".49"/>
  <rect class="cls-9" x="4.61" y="5.1" width=".49" height=".48"/>
  <rect class="cls-6" x="4.61" y="4.61" width=".49" height=".49"/>
  <rect class="cls-6" x="4.61" y="4.13" width=".49" height=".49"/>
  <rect class="cls-10" x="4.61" y="3.64" width=".49" height=".49"/>
  <rect class="cls-10" x="4.61" y="3.16" width=".49" height=".49"/>
  <rect class="cls-10" x="4.61" y="2.67" width=".49" height=".48"/>
  <rect class="cls-5" x="4.61" y="2.19" width=".49" height=".49"/>
  <rect class="cls-4" x="4.61" y="1.7" width=".49" height=".49"/>
  <rect class="cls-2" x="4.61" y="1.22" width=".49" height=".49"/>
  <rect class="cls-2" x="4.61" y=".74" width=".49" height=".48"/>
  <rect class="cls-5" x="4.61" y=".25" width=".49" height=".49"/>
  <rect class="cls-3" x="4.13" y="15.77" width=".49" height=".49"/>
  <rect class="cls-3" x="4.13" y="15.28" width=".49" height=".48"/>
  <rect class="cls-3" x="4.13" y="14.8" width=".49" height=".48"/>
  <rect class="cls-3" x="4.13" y="14.31" width=".49" height=".49"/>
  <rect class="cls-3" x="4.13" y="13.83" width=".49" height=".49"/>
  <rect class="cls-3" x="4.13" y="13.34" width=".49" height=".49"/>
  <rect class="cls-3" x="4.13" y="12.86" width=".49" height=".49"/>
  <rect class="cls-3" x="4.13" y="12.37" width=".49" height=".48"/>
  <rect class="cls-3" x="4.13" y="11.89" width=".49" height=".49"/>
  <rect class="cls-3" x="4.13" y="11.4" width=".49" height=".49"/>
  <rect class="cls-5" x="4.13" y="10.92" width=".49" height=".49"/>
  <rect class="cls-4" x="4.13" y="10.43" width=".49" height=".49"/>
  <rect class="cls-4" x="4.13" y="9.95" width=".49" height=".48"/>
  <rect class="cls-5" x="4.13" y="9.46" width=".49" height=".49"/>
  <rect class="cls-9" x="4.13" y="8.98" width=".49" height=".49"/>
  <rect class="cls-9" x="4.13" y="8.49" width=".49" height=".49"/>
  <rect class="cls-9" x="4.13" y="8.01" width=".49" height=".49"/>
  <rect class="cls-12" x="4.13" y="7.52" width=".49" height=".48"/>
  <rect class="cls-12" x="4.13" y="7.04" width=".49" height=".49"/>
  <rect class="cls-6" x="4.13" y="6.55" width=".49" height=".49"/>
  <rect class="cls-9" x="4.13" y="6.07" width=".49" height=".49"/>
  <rect class="cls-9" x="4.13" y="5.58" width=".49" height=".49"/>
  <rect class="cls-9" x="4.13" y="5.1" width=".49" height=".48"/>
  <rect class="cls-10" x="4.13" y="4.61" width=".49" height=".49"/>
  <rect class="cls-10" x="4.13" y="4.13" width=".49" height=".49"/>
  <rect class="cls-10" x="4.13" y="3.64" width=".49" height=".49"/>
  <rect class="cls-10" x="4.13" y="3.16" width=".49" height=".49"/>
  <rect class="cls-9" x="4.13" y="2.67" width=".49" height=".48"/>
  <rect class="cls-5" x="4.13" y="2.19" width=".49" height=".49"/>
  <rect class="cls-4" x="4.13" y="1.7" width=".49" height=".49"/>
  <rect class="cls-4" x="4.13" y="1.22" width=".49" height=".49"/>
  <rect class="cls-5" x="4.13" y=".74" width=".49" height=".48"/>
  <rect class="cls-3" x="3.64" y="15.77" width=".48" height=".49"/>
  <rect class="cls-3" x="3.64" y="15.28" width=".48" height=".48"/>
  <rect class="cls-3" x="3.64" y="14.8" width=".48" height=".48"/>
  <rect class="cls-3" x="3.64" y="14.31" width=".48" height=".49"/>
  <rect class="cls-3" x="3.64" y="13.83" width=".48" height=".49"/>
  <rect class="cls-3" x="3.64" y="13.34" width=".48" height=".49"/>
  <rect class="cls-3" x="3.64" y="12.86" width=".48" height=".49"/>
  <rect class="cls-3" x="3.64" y="12.37" width=".48" height=".48"/>
  <rect class="cls-3" x="3.64" y="11.89" width=".48" height=".49"/>
  <rect class="cls-3" x="3.64" y="11.4" width=".48" height=".49"/>
  <rect class="cls-5" x="3.64" y="10.92" width=".48" height=".49"/>
  <rect class="cls-1" x="3.64" y="10.43" width=".48" height=".49"/>
  <rect class="cls-4" x="3.64" y="9.95" width=".48" height=".48"/>
  <rect class="cls-4" x="3.64" y="9.46" width=".48" height=".49"/>
  <rect class="cls-5" x="3.64" y="8.98" width=".48" height=".49"/>
  <rect class="cls-9" x="3.64" y="8.49" width=".48" height=".49"/>
  <rect class="cls-9" x="3.64" y="8.01" width=".48" height=".49"/>
  <rect class="cls-6" x="3.64" y="7.52" width=".48" height=".48"/>
  <rect class="cls-6" x="3.64" y="7.04" width=".48" height=".49"/>
  <rect class="cls-9" x="3.64" y="6.55" width=".48" height=".49"/>
  <rect class="cls-9" x="3.64" y="6.07" width=".48" height=".49"/>
  <rect class="cls-9" x="3.64" y="5.58" width=".48" height=".49"/>
  <rect class="cls-9" x="3.64" y="5.1" width=".48" height=".48"/>
  <rect class="cls-9" x="3.64" y="4.61" width=".48" height=".49"/>
  <rect class="cls-10" x="3.64" y="4.13" width=".48" height=".49"/>
  <rect class="cls-10" x="3.64" y="3.64" width=".48" height=".49"/>
  <rect class="cls-9" x="3.64" y="3.16" width=".48" height=".49"/>
  <rect class="cls-5" x="3.64" y="2.67" width=".48" height=".48"/>
  <rect class="cls-4" x="3.64" y="2.19" width=".48" height=".49"/>
  <rect class="cls-4" x="3.64" y="1.7" width=".48" height=".49"/>
  <rect class="cls-4" x="3.64" y="1.22" width=".48" height=".49"/>
  <rect class="cls-5" x="3.64" y=".74" width=".48" height=".48"/>
  <rect class="cls-5" x="3.16" y="10.43" width=".49" height=".49"/>
  <rect class="cls-4" x="3.16" y="9.95" width=".49" height=".48"/>
  <rect class="cls-4" x="3.16" y="9.46" width=".49" height=".49"/>
  <rect class="cls-4" x="3.16" y="8.98" width=".49" height=".49"/>
  <rect class="cls-5" x="3.16" y="8.49" width=".49" height=".49"/>
  <rect class="cls-9" x="3.16" y="8.01" width=".49" height=".49"/>
  <rect class="cls-9" x="3.16" y="7.52" width=".49" height=".48"/>
  <rect class="cls-9" x="3.16" y="7.04" width=".49" height=".49"/>
  <rect class="cls-9" x="3.16" y="6.55" width=".49" height=".49"/>
  <rect class="cls-9" x="3.16" y="6.07" width=".49" height=".49"/>
  <rect class="cls-9" x="3.16" y="5.58" width=".49" height=".49"/>
  <rect class="cls-9" x="3.16" y="5.1" width=".49" height=".48"/>
  <rect class="cls-9" x="3.16" y="4.61" width=".49" height=".49"/>
  <rect class="cls-9" x="3.16" y="4.13" width=".49" height=".49"/>
  <rect class="cls-9" x="3.16" y="3.64" width=".49" height=".49"/>
  <rect class="cls-5" x="3.16" y="3.16" width=".49" height=".49"/>
  <rect class="cls-4" x="3.16" y="2.67" width=".49" height=".48"/>
  <rect class="cls-4" x="3.16" y="2.19" width=".49" height=".49"/>
  <rect class="cls-4" x="3.16" y="1.7" width=".49" height=".49"/>
  <rect class="cls-5" x="3.16" y="1.22" width=".49" height=".49"/>
  <rect class="cls-5" x="2.67" y="10.43" width=".49" height=".49"/>
  <rect class="cls-1" x="2.67" y="9.95" width=".49" height=".48"/>
  <rect class="cls-4" x="2.67" y="9.46" width=".49" height=".49"/>
  <rect class="cls-4" x="2.67" y="8.98" width=".49" height=".49"/>
  <rect class="cls-4" x="2.67" y="8.49" width=".49" height=".49"/>
  <rect class="cls-5" x="2.67" y="8.01" width=".49" height=".49"/>
  <rect class="cls-9" x="2.67" y="7.52" width=".49" height=".48"/>
  <rect class="cls-9" x="2.67" y="7.04" width=".49" height=".49"/>
  <rect class="cls-9" x="2.67" y="6.55" width=".49" height=".49"/>
  <rect class="cls-9" x="2.67" y="6.07" width=".49" height=".49"/>
  <rect class="cls-9" x="2.67" y="5.58" width=".49" height=".49"/>
  <rect class="cls-9" x="2.67" y="5.1" width=".49" height=".48"/>
  <rect class="cls-9" x="2.67" y="4.61" width=".49" height=".49"/>
  <rect class="cls-9" x="2.67" y="4.13" width=".49" height=".49"/>
  <rect class="cls-5" x="2.67" y="3.64" width=".49" height=".49"/>
  <rect class="cls-4" x="2.67" y="3.16" width=".49" height=".49"/>
  <rect class="cls-4" x="2.67" y="2.67" width=".49" height=".48"/>
  <rect class="cls-4" x="2.67" y="2.19" width=".49" height=".49"/>
  <rect class="cls-4" x="2.67" y="1.7" width=".49" height=".49"/>
  <rect class="cls-5" x="2.67" y="1.22" width=".49" height=".49"/>
  <rect class="cls-5" x="2.19" y="9.95" width=".48" height=".48"/>
  <rect class="cls-1" x="2.19" y="9.46" width=".48" height=".49"/>
  <rect class="cls-4" x="2.19" y="8.98" width=".48" height=".49"/>
  <rect class="cls-4" x="2.19" y="8.49" width=".48" height=".49"/>
  <rect class="cls-4" x="2.19" y="8.01" width=".48" height=".49"/>
  <rect class="cls-5" x="2.19" y="7.52" width=".48" height=".48"/>
  <rect class="cls-5" x="2.19" y="7.04" width=".48" height=".49"/>
  <rect class="cls-9" x="2.19" y="6.55" width=".48" height=".49"/>
  <rect class="cls-9" x="2.19" y="6.07" width=".48" height=".49"/>
  <rect class="cls-9" x="2.19" y="5.58" width=".48" height=".49"/>
  <rect class="cls-9" x="2.19" y="5.1" width=".48" height=".48"/>
  <rect class="cls-5" x="2.19" y="4.61" width=".48" height=".49"/>
  <rect class="cls-5" x="2.19" y="4.13" width=".48" height=".49"/>
  <rect class="cls-4" x="2.19" y="3.64" width=".48" height=".49"/>
  <rect class="cls-4" x="2.19" y="3.16" width=".48" height=".49"/>
  <rect class="cls-4" x="2.19" y="2.67" width=".48" height=".48"/>
  <rect class="cls-4" x="2.19" y="2.19" width=".48" height=".49"/>
  <rect class="cls-5" x="2.19" y="1.7" width=".48" height=".49"/>
  <rect class="cls-5" x="1.71" y="9.46" width=".48" height=".49"/>
  <rect class="cls-1" x="1.71" y="8.98" width=".48" height=".49"/>
  <rect class="cls-4" x="1.71" y="8.49" width=".48" height=".49"/>
  <rect class="cls-4" x="1.71" y="8.01" width=".48" height=".49"/>
  <rect class="cls-4" x="1.71" y="7.52" width=".48" height=".48"/>
  <rect class="cls-4" x="1.71" y="7.04" width=".48" height=".49"/>
  <rect class="cls-5" x="1.71" y="6.55" width=".48" height=".49"/>
  <rect class="cls-5" x="1.71" y="6.07" width=".48" height=".49"/>
  <rect class="cls-5" x="1.71" y="5.58" width=".48" height=".49"/>
  <rect class="cls-5" x="1.71" y="5.1" width=".48" height=".48"/>
  <rect class="cls-4" x="1.71" y="4.61" width=".48" height=".49"/>
  <rect class="cls-4" x="1.71" y="4.13" width=".48" height=".49"/>
  <rect class="cls-4" x="1.71" y="3.64" width=".48" height=".49"/>
  <rect class="cls-4" x="1.71" y="3.16" width=".48" height=".49"/>
  <rect class="cls-4" x="1.71" y="2.67" width=".48" height=".48"/>
  <rect class="cls-5" x="1.71" y="2.19" width=".48" height=".49"/>
  <rect class="cls-5" x="1.22" y="8.98" width=".49" height=".49"/>
  <rect class="cls-5" x="1.22" y="8.49" width=".49" height=".49"/>
  <rect class="cls-1" x="1.22" y="8.01" width=".49" height=".49"/>
  <rect class="cls-4" x="1.22" y="7.52" width=".49" height=".48"/>
  <rect class="cls-4" x="1.22" y="7.04" width=".49" height=".49"/>
  <rect class="cls-4" x="1.22" y="6.55" width=".49" height=".49"/>
  <rect class="cls-4" x="1.22" y="6.07" width=".49" height=".49"/>
  <rect class="cls-4" x="1.22" y="5.58" width=".49" height=".49"/>
  <rect class="cls-4" x="1.22" y="5.1" width=".49" height=".48"/>
  <rect class="cls-4" x="1.22" y="4.61" width=".49" height=".49"/>
  <rect class="cls-4" x="1.22" y="4.13" width=".49" height=".49"/>
  <rect class="cls-4" x="1.22" y="3.64" width=".49" height=".49"/>
  <rect class="cls-5" x="1.22" y="3.16" width=".49" height=".49"/>
  <rect class="cls-5" x="1.22" y="2.67" width=".49" height=".48"/>
  <rect class="cls-5" x=".73" y="8.01" width=".49" height=".49"/>
  <rect class="cls-5" x=".73" y="7.52" width=".49" height=".48"/>
  <rect class="cls-4" x=".73" y="7.04" width=".49" height=".49"/>
  <rect class="cls-4" x=".73" y="6.55" width=".49" height=".49"/>
  <rect class="cls-4" x=".73" y="6.07" width=".49" height=".49"/>
  <rect class="cls-4" x=".73" y="5.58" width=".49" height=".49"/>
  <rect class="cls-4" x=".73" y="5.1" width=".49" height=".48"/>
  <rect class="cls-4" x=".73" y="4.61" width=".49" height=".49"/>
  <rect class="cls-5" x=".73" y="4.13" width=".49" height=".49"/>
  <rect class="cls-5" x=".73" y="3.64" width=".49" height=".49"/>
  <rect class="cls-5" x=".25" y="7.04" width=".49" height=".49"/>
  <rect class="cls-5" x=".25" y="6.55" width=".49" height=".49"/>
  <rect class="cls-5" x=".25" y="6.07" width=".49" height=".49"/>
  <rect class="cls-5" x=".25" y="5.58" width=".49" height=".49"/>
  <rect class="cls-5" x=".25" y="5.1" width=".49" height=".48"/>
  <rect class="cls-5" x=".25" y="4.61" width=".49" height=".49"/>
</svg>